<svg id="Layer_1" data-name="Layer 1" xmlns="http://www.w3.org/2000/svg" viewBox="0 0 462.65 386.19"><defs><style>.cls-1{fill:#3f8de0;}.cls-2{fill:#3d3d3d;}.cls-3{fill:#303030;}.cls-4{fill:#fff;}.cls-5{fill:#0044a0;}</style></defs><title>emblem</title><polygon class="cls-1" points="92.76 285.24 1.76 285.24 31.05 253.87 1.76 223.24 92.76 223.24 92.76 285.24"/><path d="M111.44,343.91h-91a1.78,1.78,0,0,1-1.62-1.06,1.75,1.75,0,0,1,.33-1.9L47.3,310.79,19.16,281.36a1.77,1.77,0,0,1-.34-1.91,1.75,1.75,0,0,1,1.62-1.07h91a1.76,1.76,0,0,1,1.76,1.76v62A1.76,1.76,0,0,1,111.44,343.91Zm-86.95-3.52h85.18V281.91H24.56L51,309.56A1.76,1.76,0,0,1,51,312Z" transform="translate(-18.68 -56.91)"/><polygon points="91.28 230.64 64.78 234.17 91.28 237.98 91.28 230.64"/><polygon points="91.72 237.52 54.22 241.64 91.74 245.62 91.72 237.52"/><polygon points="92.17 244.39 43.66 249.11 92.19 253.26 92.17 244.39"/><polygon points="92.61 251.26 33.1 256.57 92.64 260.9 92.61 251.26"/><polygon points="91.28 281.62 64.78 278.09 91.28 274.28 91.28 281.62"/><polygon points="91.72 274.74 54.22 270.62 91.74 266.64 91.72 274.74"/><polygon points="92.17 267.87 43.66 263.15 92.19 259 92.17 267.87"/><polygon class="cls-1" points="369.89 285.24 460.89 285.24 431.6 253.87 460.89 223.24 369.89 223.24 369.89 285.24"/><path d="M386.8,342.15v-62a1.76,1.76,0,0,1,1.76-1.76h91a1.75,1.75,0,0,1,1.62,1.07,1.77,1.77,0,0,1-.34,1.91L452.7,310.79,480.85,341a1.75,1.75,0,0,1,.33,1.9,1.78,1.78,0,0,1-1.62,1.06h-91A1.76,1.76,0,0,1,386.8,342.15ZM449,312a1.76,1.76,0,0,1,0-2.42l26.44-27.65H390.33v58.48h85.18Z" transform="translate(-18.68 -56.91)"/><polygon points="371.36 230.64 397.87 234.17 371.36 237.98 371.36 230.64"/><polygon points="370.92 237.52 408.43 241.64 370.91 245.62 370.92 237.52"/><polygon points="370.48 244.39 418.99 249.11 370.46 253.26 370.48 244.39"/><polygon points="370.04 251.26 429.55 256.57 370 260.9 370.04 251.26"/><polygon points="371.36 281.62 397.87 278.09 371.36 274.28 371.36 281.62"/><polygon points="370.92 274.74 408.43 270.62 370.91 266.64 370.92 274.74"/><polygon points="370.48 267.87 418.99 263.15 370.46 259 370.48 267.87"/><polygon class="cls-2" points="231.32 11.86 365.57 64.7 365.57 321.49 231.13 374.32 97.08 321.49 97.08 64.7 231.32 11.86"/><path class="cls-3" d="M250,59.74,107.35,115.9V384.1l142.46,56.16L392.65,384.1V115.9ZM390,382.31l-140.2,55.11L110,382.31V117.69L250,62.58l140,55.11Z" transform="translate(-18.68 -56.91)"/><path d="M251,57.28l-1-.37L104.7,114.08V385.92l145.11,57.17L395.3,385.92V114.08Zm139,325-140.2,55.11L110,382.31V117.69L250,62.58l140,55.11Z" transform="translate(-18.68 -56.91)"/><path class="cls-4" d="M250,62.58,110,117.69V382.31l139.82,55.11L390,382.31V117.69ZM384.25,378.39,249.81,431.23,115.75,378.39V121.61L250,68.77l134.25,52.84Z" transform="translate(-18.68 -56.91)"/><path d="M249.81,432.17,114.87,379V121l.56-.22L250,67.83l.32.12L385.13,121V379l-.56.22ZM116.64,377.79l133.17,52.49,133.56-52.5V122.21L250,69.72,116.64,122.21Z" transform="translate(-18.68 -56.91)"/><path d="M249.81,432.11a.87.87,0,0,1-.32-.06L115.43,379.21a.88.88,0,0,1-.56-.82V121.61a.89.89,0,0,1,.56-.82L249.68,68a.88.88,0,0,1,.64,0l134.25,52.84a.89.89,0,0,1,.56.82V378.38a.89.89,0,0,1-.56.83L250.13,432.05A.87.87,0,0,1,249.81,432.11ZM116.64,377.79l133.17,52.49,133.56-52.5V122.21L250,69.72,116.64,122.21Z" transform="translate(-18.68 -56.91)"/><path d="M249.81,432.18,114.87,379V121l.56-.22L250,67.82l.32.13L385.13,121V379l-.56.22ZM116.64,377.79l133.17,52.49,133.55-52.49V122.21L250,69.72,116.64,122.21Z" transform="translate(-18.68 -56.91)"/><path d="M249.81,432.11a1,1,0,0,1-.33-.06l-134-52.84a.88.88,0,0,1-.56-.82V121.61a.87.87,0,0,1,.56-.82L249.68,68a.88.88,0,0,1,.64,0l134.25,52.84a.88.88,0,0,1,.56.82V378.39a.89.89,0,0,1-.56.82L250.13,432.05A.91.91,0,0,1,249.81,432.11ZM116.64,377.79l133.17,52.49,133.55-52.49V122.21L250,69.72,116.64,122.21Z" transform="translate(-18.68 -56.91)"/><rect class="cls-1" x="70.92" y="195.72" width="320.8" height="70.43"/><path d="M410.4,325.26H89.6a2.2,2.2,0,0,1-2.2-2.2V252.63a2.19,2.19,0,0,1,2.2-2.2H410.4a2.19,2.19,0,0,1,2.2,2.2v70.43A2.2,2.2,0,0,1,410.4,325.26ZM91.8,320.85H408.2v-66H91.8Z" transform="translate(-18.68 -56.91)"/><polygon points="73.01 197.92 71.7 203.28 114.22 200.16 73.01 197.92"/><polygon points="72.64 205.67 71.15 211.03 119.45 207.91 72.64 205.67"/><polygon points="72.26 213.42 70.6 218.78 124.69 215.66 72.26 213.42"/><polygon points="71.89 221.16 70.05 226.52 129.92 223.4 71.89 221.16"/><polygon points="73.01 263.84 114.22 261.6 71.7 258.48 73.01 263.84"/><polygon points="72.64 256.09 119.45 253.85 71.15 250.74 72.64 256.09"/><polygon points="72.26 248.35 124.69 246.11 70.6 242.99 72.26 248.35"/><polygon points="71.89 240.6 129.92 238.36 70.05 235.24 71.89 240.6"/><polygon points="135.15 230.61 69.5 227.5 71.52 232.85 135.15 230.61"/><polygon points="389.64 197.92 390.94 203.28 348.43 200.16 389.64 197.92"/><polygon points="390.01 205.67 391.5 211.03 343.19 207.91 390.01 205.67"/><polygon points="390.39 213.42 392.05 218.78 337.96 215.66 390.39 213.42"/><polygon points="390.76 221.16 392.6 226.52 332.73 223.4 390.76 221.16"/><polygon points="389.64 263.84 348.43 261.6 390.94 258.48 389.64 263.84"/><polygon points="390.01 256.09 343.19 253.85 391.5 250.74 390.01 256.09"/><polygon points="390.39 248.35 337.96 246.11 392.05 242.99 390.39 248.35"/><polygon points="390.76 240.6 332.73 238.36 392.6 235.24 390.76 240.6"/><polygon points="327.5 230.61 393.15 227.5 391.13 232.85 327.5 230.61"/><rect x="99.13" y="269.09" width="265.78" height="51.23"/><path d="M383.59,378.83H117.81a1.73,1.73,0,0,1-1.83-1.61V326a1.73,1.73,0,0,1,1.83-1.61H383.59a1.72,1.72,0,0,1,1.82,1.61v51.22A1.72,1.72,0,0,1,383.59,378.83Zm-264-3.21H381.76v-48H119.63Z" transform="translate(-18.68 -56.91)"/><polygon class="cls-4" points="121.83 272.32 100.96 274.4 100.96 270.77 121.83 272.32"/><polygon class="cls-4" points="124.62 277.95 100.96 280.03 100.96 276.41 124.62 277.95"/><polygon class="cls-4" points="127.41 283.59 100.96 285.67 100.96 282.05 127.41 283.59"/><polygon class="cls-4" points="130.22 289.23 100.96 291.31 100.96 287.69 130.22 289.23"/><polygon class="cls-4" points="121.83 317 100.96 318.55 100.96 314.92 121.83 317"/><polygon class="cls-4" points="124.62 311.38 100.96 312.91 100.96 309.3 124.62 311.38"/><polygon class="cls-4" points="127.41 305.74 100.96 307.27 100.96 303.66 127.41 305.74"/><polygon class="cls-4" points="130.22 300.1 100.96 301.65 100.96 298.04 130.22 300.1"/><polygon class="cls-4" points="133.01 294.46 100.96 296.01 100.96 292.4 133.01 294.46"/><polygon class="cls-4" points="363.09 270.77 363.09 274.39 342.97 272.32 363.09 270.77"/><polygon class="cls-4" points="363.09 276.41 363.09 280.03 340.26 277.95 363.09 276.41"/><polygon class="cls-4" points="363.09 282.05 363.09 285.67 337.57 283.59 363.09 282.05"/><polygon class="cls-4" points="363.09 287.69 363.09 291.31 334.86 289.23 363.09 287.69"/><polygon class="cls-4" points="363.09 314.94 363.09 318.55 342.97 317 363.09 314.94"/><polygon class="cls-4" points="363.09 309.3 363.09 312.91 340.26 311.38 363.09 309.3"/><polygon class="cls-4" points="363.09 303.66 363.09 307.27 337.57 305.74 363.09 303.66"/><polygon class="cls-4" points="363.09 298.04 363.09 301.65 334.86 300.1 363.09 298.04"/><polygon class="cls-4" points="363.09 292.4 363.09 296 332.15 294.46 363.09 292.4"/><path d="M152.51,313.72a15.57,15.57,0,0,1-5-.78,12.44,12.44,0,0,1-4.07-2.23,10.78,10.78,0,0,1-2.76-3.58,10.93,10.93,0,0,1-1-4.81V270.9a11,11,0,0,1,1-4.82,10.84,10.84,0,0,1,2.76-3.57,12.44,12.44,0,0,1,4.07-2.23,15.57,15.57,0,0,1,5-.78,15.28,15.28,0,0,1,4.92.78,12.45,12.45,0,0,1,4,2.23,10.26,10.26,0,0,1,2.73,3.57,11.28,11.28,0,0,1,1,4.82v6h-4.25a4.39,4.39,0,0,1-3-1.09,3.6,3.6,0,0,1-1.24-2.8v-2.69a3.9,3.9,0,0,0-1.23-2.65,4.17,4.17,0,0,0-3.15-1.31,4.25,4.25,0,0,0-4.32,4v33.05a3.34,3.34,0,0,0,1.27,2.34,5,5,0,0,0,5.06.85,5,5,0,0,0,1.42-.92,4.38,4.38,0,0,0,.92-1.2,2.88,2.88,0,0,0,.32-1.28v-2.83a4.4,4.4,0,0,1,.95-2.83,3.37,3.37,0,0,1,2.8-1.2h4.46v6a11.21,11.21,0,0,1-1,4.81,10.2,10.2,0,0,1-2.73,3.58,12.45,12.45,0,0,1-4,2.23A15.28,15.28,0,0,1,152.51,313.72Z" transform="translate(-18.68 -56.91)"/><path d="M182.87,313.72a18.52,18.52,0,0,1-4.92-.64,11.68,11.68,0,0,1-4-2,9.81,9.81,0,0,1-2.76-3.36,10.21,10.21,0,0,1-1-4.71V270.19a10.21,10.21,0,0,1,1-4.71,9.4,9.4,0,0,1,2.76-3.32,12.26,12.26,0,0,1,4-2,17.73,17.73,0,0,1,4.92-.67,18.1,18.1,0,0,1,4.95.67,12.18,12.18,0,0,1,4.07,2,9.4,9.4,0,0,1,2.76,3.32,10.21,10.21,0,0,1,1,4.71V303a10.21,10.21,0,0,1-1,4.71,9.81,9.81,0,0,1-2.76,3.36,11.62,11.62,0,0,1-4.07,2A18.91,18.91,0,0,1,182.87,313.72ZM187.4,271c0-1.84-.43-3.08-1.28-3.72a5.31,5.31,0,0,0-3.25-.95,5.23,5.23,0,0,0-3.19.95c-.84.64-1.27,1.88-1.27,3.72v31.14c0,1.84.43,3.09,1.27,3.75a5.06,5.06,0,0,0,3.19,1,4.8,4.8,0,0,0,3.25-1.09c.85-.74,1.28-2.05,1.28-3.93Z" transform="translate(-18.68 -56.91)"/><path d="M229.09,260.21v3a10.54,10.54,0,0,1-.15,1.84,2.43,2.43,0,0,1-.91,1.49,3.58,3.58,0,0,0-.47.53,1.71,1.71,0,0,0-.17.89v43.59a1.85,1.85,0,0,1-.36,1.17,1.32,1.32,0,0,1-1.13.46h-4.1a1.71,1.71,0,0,1-1.53-.85,11.41,11.41,0,0,1-1-2c-.1-.29-.4-1.09-.92-2.41s-1.12-2.89-1.81-4.7-1.42-3.75-2.23-5.81-1.53-3.95-2.19-5.69-1.22-3.2-1.66-4.36-.68-1.75-.68-1.8,0-.16-.07-.18-.07.08-.07.32v19.75a1.64,1.64,0,0,0,.22,1,5.94,5.94,0,0,0,.49.56,5.82,5.82,0,0,1,1.13,1.21,3.27,3.27,0,0,1,.57,2v3H199v-3a3.57,3.57,0,0,1,.49-1.84,5.51,5.51,0,0,1,1.28-1.49,3.4,3.4,0,0,0,.49-.6,1.68,1.68,0,0,0,.14-.81V267.36a2.8,2.8,0,0,1-1.2-.71,3.42,3.42,0,0,1-.85-1.2,4.75,4.75,0,0,1-.35-2v-3.26h6.15a5,5,0,0,1,1.84.39,3.06,3.06,0,0,1,1.56,2q.08.15.78,1.92t1.73,4.45c.69,1.8,1.44,3.76,2.27,5.88l2.37,6.12q1.13,2.94,2,5.24c.57,1.54.94,2.61,1.13,3.22.05.14.1.15.15,0a1.23,1.23,0,0,0,.07-.39V267.93a1.66,1.66,0,0,0-.22-1,4.91,4.91,0,0,0-.49-.56,5.56,5.56,0,0,1-1.13-1.21,3.25,3.25,0,0,1-.57-2v-3Z" transform="translate(-18.68 -56.91)"/><path d="M255.49,260.78a1.9,1.9,0,0,1,.63,1.48V270h-2.83a3.4,3.4,0,0,1-2.3-.71,5.45,5.45,0,0,1-1.17-1.34,2.48,2.48,0,0,0-.53-.64,1.64,1.64,0,0,0-1.09-.28h-5a1,1,0,0,0-.78.31,1.09,1.09,0,0,0-.28.74v13.31a1.08,1.08,0,0,0,.25.85,1.23,1.23,0,0,0,.81.21h7.57a.78.78,0,0,1,.78.5,2.68,2.68,0,0,1,.22,1.06v4.39a1.08,1.08,0,0,1-.29.74.85.85,0,0,1-.63.32h-7.72a1,1,0,0,0-.67.25.88.88,0,0,0-.32.74v15a1.79,1.79,0,0,0,.18.92,2.1,2.1,0,0,0,.53.56,6,6,0,0,1,1.13,1.2,3.3,3.3,0,0,1,.57,2v3h-13.1v-3a3.3,3.3,0,0,1,.57-2,5.74,5.74,0,0,1,1.13-1.2,5,5,0,0,0,.5-.56,1.75,1.75,0,0,0,.21-1V268a1.61,1.61,0,0,0-.85-1.49,2.66,2.66,0,0,1-1.13-1.1,4.87,4.87,0,0,1-.43-2.37v-2.83h22.79A1.89,1.89,0,0,1,255.49,260.78Z" transform="translate(-18.68 -56.91)"/><path d="M284.5,303v8.35a1.69,1.69,0,0,1-.56,1.34,1.76,1.76,0,0,1-1.14.5H258.88v-3a5.21,5.21,0,0,1,.43-2.38,2.64,2.64,0,0,1,1.13-1.16,1.55,1.55,0,0,0,.64-.49,1.39,1.39,0,0,0,.28-.86V267.85a1.58,1.58,0,0,0-.21-.92,2.58,2.58,0,0,0-.5-.49,5.82,5.82,0,0,1-1.13-1.21,3.23,3.23,0,0,1-.57-2v-3h13.1v3a3.23,3.23,0,0,1-.57,2,5.82,5.82,0,0,1-1.13,1.21,1.49,1.49,0,0,0-.53.49,2,2,0,0,0-.18,1v37.65a.88.88,0,0,0,1,1h5.59a1.6,1.6,0,0,0,1.49-.92,8.91,8.91,0,0,1,1.2-1.7,3,3,0,0,1,2.41-1Z" transform="translate(-18.68 -56.91)"/><path d="M298,305.44a2,2,0,0,0,.18,1,2.26,2.26,0,0,0,.53.56,5.82,5.82,0,0,1,1.13,1.21,3.27,3.27,0,0,1,.57,2v3H287.26v-3a3.27,3.27,0,0,1,.57-2A6.09,6.09,0,0,1,289,307a3.67,3.67,0,0,0,.46-.56,2.15,2.15,0,0,0,.25-.85V268a1.71,1.71,0,0,0-.21-1,5.1,5.1,0,0,0-.5-.57,6.09,6.09,0,0,1-1.13-1.21,3.23,3.23,0,0,1-.57-2v-3h13.17v3a3.23,3.23,0,0,1-.57,2,5.82,5.82,0,0,1-1.13,1.21,2.12,2.12,0,0,0-.53.57,1.94,1.94,0,0,0-.18,1Z" transform="translate(-18.68 -56.91)"/><path d="M316.56,313.72a15.55,15.55,0,0,1-4.95-.78,12.34,12.34,0,0,1-4.07-2.23,10.52,10.52,0,0,1-2.76-3.58,10.79,10.79,0,0,1-1-4.81V270.9a10.87,10.87,0,0,1,1-4.82,10.58,10.58,0,0,1,2.76-3.57,12.34,12.34,0,0,1,4.07-2.23,15.55,15.55,0,0,1,4.95-.78,15.19,15.19,0,0,1,4.92.78,12.5,12.5,0,0,1,4,2.23,10.35,10.35,0,0,1,2.72,3.57,11.28,11.28,0,0,1,1,4.82v6H325a4.36,4.36,0,0,1-3-1.09,3.57,3.57,0,0,1-1.24-2.8v-2.69a3.87,3.87,0,0,0-1.24-2.65,4.16,4.16,0,0,0-3.15-1.31,4,4,0,0,0-3.15,1.31,4,4,0,0,0-1.16,2.65v33.05a3.34,3.34,0,0,0,1.27,2.34,4.55,4.55,0,0,0,3.25,1.2,4.6,4.6,0,0,0,1.81-.35,4.91,4.91,0,0,0,1.41-.92,4.38,4.38,0,0,0,.92-1.2,2.76,2.76,0,0,0,.32-1.28v-2.83a4.41,4.41,0,0,1,1-2.83,3.35,3.35,0,0,1,2.79-1.2h4.46v6a11.21,11.21,0,0,1-1,4.81,10.3,10.3,0,0,1-2.72,3.58,12.5,12.5,0,0,1-4,2.23A15.19,15.19,0,0,1,316.56,313.72Z" transform="translate(-18.68 -56.91)"/><path d="M360.48,260.92a3.44,3.44,0,0,1,.74,2.55v6.58h-3.11a3.23,3.23,0,0,1-3.05-2,1.46,1.46,0,0,0-.84-.84,3,3,0,0,0-.85-.15H352a1,1,0,0,0-.74.32,1.23,1.23,0,0,0-.32.89v37.16a2.49,2.49,0,0,0,.25,1,1.49,1.49,0,0,0,.53.49,5.17,5.17,0,0,1,1.09,1.2,3.43,3.43,0,0,1,.54,2v3h-13v-3a3.3,3.3,0,0,1,.56-2,6,6,0,0,1,1.13-1.2,1.62,1.62,0,0,0,.54-.49,2.11,2.11,0,0,0,.17-1v-37.3a1,1,0,0,0-.35-.82,1.3,1.3,0,0,0-.71-.25h-1.21a2.86,2.86,0,0,0-.88.25,1.65,1.65,0,0,0-.88.82,7,7,0,0,1-.82,1.48c-.26.34-1,.5-2.16.5h-3.18v-6.65a4.59,4.59,0,0,1,.53-2.45q.53-.81,2.37-.81H358A3.47,3.47,0,0,1,360.48,260.92Z" transform="translate(-18.68 -56.91)"/><path class="cls-4" d="M169.23,370.22a12.43,12.43,0,0,1-3.89-.61,9.76,9.76,0,0,1-3.19-1.75,8.39,8.39,0,0,1-2.17-2.81,8.53,8.53,0,0,1-.8-3.78V336.61a8.53,8.53,0,0,1,.8-3.78,8.35,8.35,0,0,1,2.17-2.8,9.76,9.76,0,0,1,3.19-1.75,12.14,12.14,0,0,1,3.89-.61,11.87,11.87,0,0,1,3.86.61,9.76,9.76,0,0,1,3.17,1.75,8.14,8.14,0,0,1,2.14,2.8,9,9,0,0,1,.77,3.78v4.72h-3.33a3.47,3.47,0,0,1-2.36-.86,2.78,2.78,0,0,1-1-2.19v-2.11a3.1,3.1,0,0,0-1-2.09,3.29,3.29,0,0,0-2.48-1,3.3,3.3,0,0,0-3.38,3.11v25.94a2.62,2.62,0,0,0,1,1.83,3.55,3.55,0,0,0,2.55.95,3.63,3.63,0,0,0,1.42-.28,4,4,0,0,0,1.11-.72,3.67,3.67,0,0,0,.72-.95,2.15,2.15,0,0,0,.25-1v-2.22a3.47,3.47,0,0,1,.75-2.22,2.63,2.63,0,0,1,2.19-.95h3.5v4.72a9,9,0,0,1-.77,3.78,8.18,8.18,0,0,1-2.14,2.81,9.76,9.76,0,0,1-3.17,1.75A12.15,12.15,0,0,1,169.23,370.22Z" transform="translate(-18.68 -56.91)"/><path class="cls-4" d="M205.73,330.61v.06a3,3,0,0,1-1.28,2.44,2.64,2.64,0,0,0-.39.34.8.8,0,0,0-.22.49v29.72a1.27,1.27,0,0,0,.17.78,2.05,2.05,0,0,0,.44.45,4,4,0,0,1,.86.94,2.71,2.71,0,0,1,.42,1.56v2.38H195.39v-2.38a2.57,2.57,0,0,1,.45-1.56,4.27,4.27,0,0,1,.89-.94,2.26,2.26,0,0,0,.41-.42,1.06,1.06,0,0,0,.14-.64V351.61c0-.52-.27-.78-.83-.78H191a.9.9,0,0,0-.59.22.75.75,0,0,0-.25.56v12.11a1.23,1.23,0,0,0,.17.72,3.91,3.91,0,0,0,.39.45,4.52,4.52,0,0,1,.89.94,2.64,2.64,0,0,1,.44,1.56v2.38H181.78v-2.38a2.57,2.57,0,0,1,.45-1.56,4.27,4.27,0,0,1,.89-.94,1.86,1.86,0,0,0,.41-.45,1.34,1.34,0,0,0,.14-.72V334.33a1.5,1.5,0,0,0-.14-.78,2,2,0,0,0-.41-.44,2.87,2.87,0,0,1-1.34-2.44v-2.45h10.28v2.45a3,3,0,0,1-.36,1.36,2.83,2.83,0,0,1-1,1.08,3.12,3.12,0,0,0-.36.42,1.37,1.37,0,0,0-.2.64v10.44a.71.71,0,0,0,.28.64,1,1,0,0,0,.56.19h5.49a.7.7,0,0,0,.59-.25.9.9,0,0,0,.19-.58V334.33a1.5,1.5,0,0,0-.14-.78,2,2,0,0,0-.41-.44,3.15,3.15,0,0,1-1.34-2.44v-2.45h10.34Z" transform="translate(-18.68 -56.91)"/><path class="cls-4" d="M232.33,365.11a3.08,3.08,0,0,1,.87.89,2.73,2.73,0,0,1,.41,1.55v2.22H223.34v-2a4.15,4.15,0,0,1,.19-1.45,2.85,2.85,0,0,1,.45-.8c.16-.21.32-.41.47-.62a1.31,1.31,0,0,0,.22-.8c-.19-1-.32-1.83-.39-2.5s-.15-1.19-.22-1.58a2.14,2.14,0,0,0-.31-.84.7.7,0,0,0-.58-.25h-5.11a1.77,1.77,0,0,0-.72.11c-.15.08-.24.28-.28.62a5.79,5.79,0,0,0-.08,1c0,.49-.07,1-.14,1.5s-.15,1.24-.23,1.95a1.74,1.74,0,0,0,.2.92c.13.2.26.41.39.64a6.85,6.85,0,0,1,.39.77,3.52,3.52,0,0,1,.19,1.34v2H207.67v-2.22a2.51,2.51,0,0,1,.28-1.3,4,4,0,0,1,.61-.81l.69-.66a2,2,0,0,0,.53-.84l3.11-14.67c.37-1.81.75-3.6,1.14-5.35s.73-3.34,1-4.73.54-2.51.72-3.38.28-1.33.28-1.37v-.27a1,1,0,0,0-.25-.72l-.56-.64a4.39,4.39,0,0,1-.55-.92,4.21,4.21,0,0,1-.25-1.67v-2q2.94,0,4.8,0a15.26,15.26,0,0,1,3,.2,3.14,3.14,0,0,1,1.63.75,3.41,3.41,0,0,1,.81,1.58c0,.15.16.74.36,1.75s.47,2.32.81,3.89.7,3.35,1.11,5.34l1.22,6q1.44,7.17,3.33,16.22a1.7,1.7,0,0,0,.34.7A4.41,4.41,0,0,0,232.33,365.11Zm-9.6-11.39c.48,0,.68-.2.61-.61L222,345.44c-.18-1-.35-1.9-.5-2.83s-.28-1.76-.41-2.5-.24-1.34-.31-1.8-.11-.72-.11-.75h-.11s-.06.41-.17,1.14-.26,1.63-.44,2.75-.39,2.32-.61,3.63-.44,2.55-.64,3.7-.37,2.13-.5,2.94-.2,1.28-.2,1.39,0,.42.09.5a1.53,1.53,0,0,0,.75.11h3.89Z" transform="translate(-18.68 -56.91)"/><path class="cls-4" d="M270.3,332.28a2.62,2.62,0,0,1-.64.89,2.1,2.1,0,0,1-.94.5v30.05a1.36,1.36,0,0,0,.17.78,2.06,2.06,0,0,0,.39.39,4.25,4.25,0,0,1,.88.94,2.57,2.57,0,0,1,.45,1.56v2.38H260.33v-2.38a2.57,2.57,0,0,1,.45-1.56,4.05,4.05,0,0,1,.89-.94,1.44,1.44,0,0,0,.42-.39,1.77,1.77,0,0,0,.13-.78V342.78a.2.2,0,0,0,0-.11s-.06,0-.14.16c-1.14,2.49-2.18,4.72-3.1,6.73q-.61,1.28-1.2,2.52l-1.06,2.28-.8,1.75c-.22.48-.35.78-.39.89a1.24,1.24,0,0,1-.89.58,5.83,5.83,0,0,1-1.53.19,6.81,6.81,0,0,1-1.52-.16,1.15,1.15,0,0,1-.89-.56,5.57,5.57,0,0,1-.42-.86c-.2-.46-.47-1-.8-1.69s-.7-1.41-1.09-2.23-.77-1.64-1.14-2.49c-.92-2-1.94-4.15-3.05-6.56,0-.07-.09-.11-.14-.11s-.08.09-.08.28v20.27a1.35,1.35,0,0,0,.16.78,3.91,3.91,0,0,0,.39.45,4.27,4.27,0,0,1,.89.94,2.64,2.64,0,0,1,.44,1.56v2.38H235.56v-2.38a2.57,2.57,0,0,1,.44-1.56,4.27,4.27,0,0,1,.89-.94,1.47,1.47,0,0,0,.36-.39,1.78,1.78,0,0,0,.2-.67V333.67a1.86,1.86,0,0,1-.95-.5,2.12,2.12,0,0,1-.66-.89,3.72,3.72,0,0,1-.28-1.56v-2.5h7.55a1.25,1.25,0,0,1,1.17.84l8.78,19.33,8.61-19.33a1.17,1.17,0,0,1,.83-.67,4.2,4.2,0,0,1,1.06-.17h7.05v2.5A3.41,3.41,0,0,1,270.3,332.28Z" transform="translate(-18.68 -56.91)"/><path class="cls-4" d="M291.55,348.39a4.57,4.57,0,0,1,1.73,2.5,13.16,13.16,0,0,1,.44,3.55v6.33a9.54,9.54,0,0,1-2.17,6.56c-1.44,1.63-3.76,2.44-6.94,2.44H272.5v-2.38a3.83,3.83,0,0,1,.3-1.7,2,2,0,0,1,.87-.86,1.35,1.35,0,0,0,.72-1.28V334.39a1.13,1.13,0,0,0-.67-1.17,2,2,0,0,1-.89-.91,4.18,4.18,0,0,1-.33-1.86v-2.23h11.55q4.72,0,6.92,2.36a9.17,9.17,0,0,1,2.19,6.47v4.78a11.79,11.79,0,0,1-.36,3.06,4.69,4.69,0,0,1-1.36,2.27.81.81,0,0,0-.33.62C291.11,348,291.25,348.2,291.55,348.39Zm-10.61-3.5a.54.54,0,0,0,.61.61h2.5c1.15,0,1.87-.32,2.17-1a7.29,7.29,0,0,0,.44-2.92v-4.67a5.38,5.38,0,0,0-.44-2.64c-.3-.46-1-.69-2.17-.69h-2.5c-.41,0-.61.23-.61.67Zm6.34,9.83v-1.78a4.67,4.67,0,0,0-.17-1.33,1.56,1.56,0,0,0-.61-.86,2.42,2.42,0,0,0-1.33-.31h-3.45a.69.69,0,0,0-.78.78v12.5c0,.55.22.83.67.83h3c1.14,0,1.88-.27,2.19-.8a5.71,5.71,0,0,0,.48-2.75Z" transform="translate(-18.68 -56.91)"/><path class="cls-4" d="M304.94,333.86a.78.78,0,0,0-.22.53v10.5a.69.69,0,0,0,.78.78h6.44a1.07,1.07,0,0,1,.58.19.71.71,0,0,1,.31.64v3.89c0,.52-.28.78-.83.78h-6.5a.68.68,0,0,0-.78.77v11.78a.73.73,0,0,0,.28.61.84.84,0,0,0,.55.22h4.83c.37,0,.62-.22.73-.66a2.33,2.33,0,0,1,1.08-1.67,4.22,4.22,0,0,1,2.08-.44h2v6.6a1.32,1.32,0,0,1-.42,1,1.49,1.49,0,0,1-1,.38H296.33v-2.22a4.55,4.55,0,0,1,.3-1.86,1.88,1.88,0,0,1,.87-.91,1.23,1.23,0,0,0,.5-.45,1.33,1.33,0,0,0,.22-.72V334.44a1.32,1.32,0,0,0-.78-1.27,2.11,2.11,0,0,1-.81-.86,3.83,3.83,0,0,1-.3-1.7v-2.39h18.11a1.9,1.9,0,0,1,1.19.47,1.29,1.29,0,0,1,.59.92v6.28H314a2.81,2.81,0,0,1-1.84-.56,4,4,0,0,1-.94-1.05,1.15,1.15,0,0,0-1.17-.67h-4.61A.64.64,0,0,0,304.94,333.86Z" transform="translate(-18.68 -56.91)"/><path class="cls-4" d="M340.44,364.5a2.6,2.6,0,0,1,.78.8,2.78,2.78,0,0,1,.33,1.47v3h-5.39a2.63,2.63,0,0,1-2.17-.89,3.21,3.21,0,0,1-.72-2.11V354.44a3.66,3.66,0,0,0-.64-2.38,2.92,2.92,0,0,0-2.36-.78h-2.33q-.72,0-.72.78v11.66a1.5,1.5,0,0,0,.14.78,1.29,1.29,0,0,0,.41.39,4.27,4.27,0,0,1,.89.94,2.57,2.57,0,0,1,.44,1.56v2.38H318.83v-2.38a2.57,2.57,0,0,1,.44-1.56,4.27,4.27,0,0,1,.89-.94,2.06,2.06,0,0,0,.39-.39,1.24,1.24,0,0,0,.17-.73V333.61a.41.41,0,0,0-.28-.39,4.23,4.23,0,0,1-1-.89,2.51,2.51,0,0,1-.53-1.72v-2.39h11.72a9.67,9.67,0,0,1,3.75.7,8.41,8.41,0,0,1,2.89,1.92,8.23,8.23,0,0,1,1.83,2.91,10.47,10.47,0,0,1,.64,3.75v5.11a9.89,9.89,0,0,1-.5,3.25,5.36,5.36,0,0,1-1.61,2.42c-.45.37-.43.74,0,1.11a4.33,4.33,0,0,1,1.67,2.61,16.34,16.34,0,0,1,.39,3.72v7.61a1.29,1.29,0,0,0,.19.75A1.62,1.62,0,0,0,340.44,364.5Zm-7-27.39a3.2,3.2,0,0,0-3.34-3.5h-2.22q-.66,0-.66.78v10.94a.77.77,0,0,0,.19.61.64.64,0,0,0,.42.17h2.83a2.38,2.38,0,0,0,2.25-.92,5.23,5.23,0,0,0,.53-2.58Z" transform="translate(-18.68 -56.91)"/><path class="cls-4" d="M250.3,400.73c.89-6.72,1.81-10.1,2.61-16.74-1,1.7-13.35,20.68-14.19,22.43,0,0,10.35,0,10.66,0,0,.22-2.86,15.81-2.92,16.35.21-.05,14.82-22.06,14.82-22.06Z" transform="translate(-18.68 -56.91)"/><path class="cls-4" d="M250.24,208.56l.09.09,2.23-2.23-.09-.09Z" transform="translate(-18.68 -56.91)"/><path class="cls-4" d="M285,217.13a46.67,46.67,0,0,1-8.11-.73A45.11,45.11,0,0,1,254.07,205l-1.5-1.39,1.36-1.53,14.53-14.54,1.4,1.4a22.85,22.85,0,0,0,32.25,0,22.35,22.35,0,0,0,5.62-9.37l-7.57-4.07-.21-.2a3.32,3.32,0,0,1,0-5l.2-.21,7.58-4.06a22.51,22.51,0,0,0-5.62-9.3,22.85,22.85,0,0,0-32.25,0l-1.4,1.4L251.31,141l1.4-1.4A45.22,45.22,0,0,1,277,126.9a46.58,46.58,0,0,1,8-.72,45.48,45.48,0,0,1,0,90.95Z" transform="translate(-18.68 -56.91)"/><path d="M285,128.16a43.5,43.5,0,0,1,0,87,44.55,44.55,0,0,1-7.77-.7,43.25,43.25,0,0,1-21.78-10.89l-.09-.09,13.14-13.14a24.82,24.82,0,0,0,35,0A24.27,24.27,0,0,0,310,178.58l-8.7-4.67a1.37,1.37,0,0,1,0-2.18l8.7-4.67a24.24,24.24,0,0,0-6.54-11.68,24.82,24.82,0,0,0-35,0L254.1,141l.06-.06a43.43,43.43,0,0,1,23.13-12.12,44.37,44.37,0,0,1,7.67-.68m0-4a47.51,47.51,0,0,0-33.6,14L248.58,141l2.73,2.84,14.36,14.36,2.79,2.79,2.79-2.79a20.84,20.84,0,0,1,34.06,7l-5.83,3.14-.52.27-.41.42a5.25,5.25,0,0,0,0,7.75l.41.41.52.28,5.84,3.14a20.83,20.83,0,0,1-34.07,7l-2.79-2.79-2.79,2.79-13.14,13.14-2.89,2.9,3,2.78a47.19,47.19,0,0,0,23.86,12,48.39,48.39,0,0,0,8.46.76,47.45,47.45,0,0,0,0-94.89Z" transform="translate(-18.68 -56.91)"/><path class="cls-4" d="M279.79,245.06,275,229.49a54.91,54.91,0,0,1-11.58-3.44l-.55.46-.91-.92-2.62-1.26,1.75-1.49.2-.43-13.71-13.76,5-5,1.4,1.3a45.56,45.56,0,1,0,9-73.19l-12.83,7.09,23.31-22.71.05-.66,2.25-7.35L278.88,98h16.53l5.39,17.49,9.47,2.92,15.09-11.27,13.22,9.37L332.35,134l5.89,7.88h19.09l4.78,14.28L360,157.79c-.63.47-1.18.89-1.74,1.27l-3.31,2.21c-2.42,1.6-4.84,3.21-7.2,4.9a1.84,1.84,0,0,0-.22.17l8.79,3.72.27.28a3.31,3.31,0,0,1,0,5l-.26.27-6.15,2.6,12,8.15-4.95,14.91H338.14l-5.4,7.27,6.32,17.57-13.12,9.38-2.28-1.57c-.65-.44-1.2-.82-1.74-1.22l-3.2-2.41c-2.31-1.74-4.61-3.49-7-5.16a3.41,3.41,0,0,0-.5-.28,54.08,54.08,0,0,1-9.77,3.67l-5.15,16.57Z" transform="translate(-18.68 -56.91)"/><path d="M294,100l5.28,17.09,11.42,3.52,14.74-11,10.83,7.67c-2.12,6-4.11,11.55-6.08,17.08l7.12,9.51h18.65c1.31,3.9,2.58,7.69,3.87,11.58-1.07.8-1.84,1.43-2.66,2-3.52,2.38-7.09,4.67-10.54,7.14a4.65,4.65,0,0,0-2,2.69l10.56,4.47a1.37,1.37,0,0,1,0,2.18L346,177.78l13.79,9.35c-1.39,4.18-2.71,8.15-4,12.14H337.15l-6.62,8.91c2,5.58,4,11.17,6.16,17.17l-10.77,7.7c-1.18-.82-2-1.36-2.82-2-3.4-2.54-6.75-5.15-10.21-7.6a5.68,5.68,0,0,0-1.78-.81,52.39,52.39,0,0,1-11.18,4.18l-5.05,16.23H281.24c-1.65-5.33-3.22-10.39-4.76-15.34a53.2,53.2,0,0,1-13.45-4c.87-.74,1.24-1.11,1.24-1.11l-13.94-14,2.23-2.23A47.53,47.53,0,1,0,262,130.06l11.92-11.61,1.42-1.39.09-1.18c.75-2.44,1.47-4.81,2.2-7.14.88-2.86,1.78-5.72,2.72-8.73H294m-31.1,123.66.09,0,.09,0-.09.07c-.05-.06-.13-.15-.09-.15m.09.15c0,.05.07.08,0,.08l-.09,0,.05-.05M296.86,96.06H277.43l-.87,2.77-.84,2.71-1.88,6L272,113.73l-.31,1-.12.42,0,.14-.35.34-11.92,11.62-21,20.46,25.67-14.19a43.48,43.48,0,0,1,51,6.5,43.49,43.49,0,0,1,2.62,60.6,43.53,43.53,0,0,1-62.25,2.93l-2.78-2.6-2.7,2.69-2.23,2.23-2.79,2.79,2.78,2.79,11,11-2.75,2.34h0l.32.14,4.55,2.22,1.9,2.15,1.18-1a57.15,57.15,0,0,0,9.71,2.88l4.06,13.06.86,2.77h19.45l.86-2.77,2.73-8.8,1.67-5.36a56,56,0,0,0,8.06-3c2.16,1.54,4.33,3.18,6.43,4.77,1.06.81,2.13,1.61,3.2,2.41.58.43,1.17.83,1.87,1.31l1.07.73,2.28,1.58,2.26-1.61,10.77-7.7,2.42-1.74-1-2.8-3.17-8.83L335,208.84l2.26-3.05,1.91-2.58h19.51l.9-2.7,3.93-11.86.1-.28.94-2.83L362,183.86l-7.79-5.28,2.45-1,.71-.3.54-.54a5.38,5.38,0,0,0,1.71-3.87,5.44,5.44,0,0,0-1.7-3.89l-.55-.54-.71-.3-5.16-2.19c1.45-1,2.92-2,4.36-2.93,1.15-.75,2.29-1.51,3.43-2.28.6-.41,1.19-.85,1.86-1.36l.95-.73,2.29-1.7-.9-2.71-1.86-5.56-2-6-.9-2.7H339.23l-.12-.16-4.55-6.07,5.38-15.08,1-2.82-2.44-1.72-8.29-5.88-2.54-1.8-2.34-1.66-2.3,1.72L315.59,112l-5.7,4.26-1.31-.41-6.2-1.91-4.66-15.1-.86-2.78Z" transform="translate(-18.68 -56.91)"/><rect class="cls-5" x="250.26" y="208.55" width="0.02" height="0.12" transform="translate(-92.86 181.4) rotate(-45.04)"/><path class="cls-1" d="M203.67,244.35l-5.21-16.73a54.41,54.41,0,0,1-9.68-3.53,2.94,2.94,0,0,0-.53.3c-2.38,1.69-4.71,3.45-7,5.22L178.08,232c-.55.41-1.1.79-1.77,1.24l-2.25,1.55L161,225.37l6.31-17.57-5.4-7.27H142.78l-4.95-14.91,12.08-8.19-6.76-2.86-.27-.27a3.29,3.29,0,0,1,0-5l.27-.27L152,165.3c-2.26-1.62-4.58-3.16-6.9-4.69l-3.36-2.25c-.57-.39-1.12-.8-1.75-1.28l-2.14-1.61,4.78-14.28h19.09l5.89-7.88-6.23-17.48,13.22-9.37,15.09,11.27,9.46-2.92,5.4-17.48h16.29l.68,1.38L226.61,115l9,3,14.93-11.16,1.18.83c2.38,1.69,8.1,5.46,12.48,8.33l4.2,2.73L246,142.44l-1.43-1.51c-.87-.87-1.71-1.63-2.58-2.38a46.24,46.24,0,0,0-7.09-5,43.92,43.92,0,0,0-4.55-2.28,46,46,0,0,0-4.39-1.63,45.2,45.2,0,0,0-7.32-1.63,45.84,45.84,0,0,0-6.25-.44,45.16,45.16,0,0,0-26.18,8.32,45.53,45.53,0,1,0,59.51,68.25l1.4-1.49,1.46,1.42,18.78,18.85-2,1.34s-.39.28-1.16.94l-14.41,10.71-1.17-.83c-2.44-1.74-7.15-5.83-10.66-9l-1.63-1.2a54.62,54.62,0,0,1-11.17,3.44l-5,16Z" transform="translate(-18.68 -56.91)"/><path d="M219.67,99.3c.94,3,1.84,5.87,2.72,8.73s1.72,5.59,2.63,8.56l3.13,1,4.52,1.48,2.67.88.68.22,13.51-10.1,1.1-.82c2.61,1.85,9.11,6.12,12.54,8.37l2.22,1.44-1.59,1.68-1.42,1.49-9.61,10.15-3.14,3.31-.4.43-.1.1L246,139.57l-.1-.1c-.84-.84-1.73-1.64-2.63-2.42a47.7,47.7,0,0,0-7.39-5.2,46.66,46.66,0,0,0-17-5.78,48.34,48.34,0,0,0-6.52-.46,47.53,47.53,0,1,0,34.77,79.89l0,0,3.07,3.09,0,0,.09.09,0,0,13.94,14s-.37.25-1.33,1.07l-13.16,9.77c-2.47-1.76-7.43-6.1-10.49-8.83l-2.69-2a52.33,52.33,0,0,1-12.95,4c-1.58,5.07-3.19,10.28-4.89,15.75H205.12L200,226a52.38,52.38,0,0,1-11.11-4,5.37,5.37,0,0,0-1.8.81c-3.46,2.46-6.81,5.07-10.21,7.6-.8.6-1.64,1.14-2.82,2l-10.77-7.7c2.15-6,4.15-11.59,6.16-17.17l-6.62-8.91H144.2c-1.32-4-2.64-8-4-12.14L154,177l-9.74-4.13a1.36,1.36,0,0,1,0-2.18l11-4.64a5.25,5.25,0,0,0-1.83-2.22c-3.45-2.47-7-4.76-10.54-7.14-.82-.55-1.59-1.18-2.66-2,1.29-3.89,2.56-7.68,3.87-11.58h18.65l7.12-9.51c-2-5.53-4-11.11-6.08-17.08l10.83-7.67,14.74,11,11.42-3.52,5.28-17.09h13.62m2.9-4H203.14l-.86,2.78-4.66,15.11-2.24.68-5.27,1.63-2.17-1.62-11-8.19-2.3-1.72-2.34,1.66-4.89,3.47-5.94,4.21-2.44,1.72,1,2.82L165.44,133l-1.85,2.47-2.82,3.77H141.25l-.9,2.69-3.09,9.23-.79,2.35-.9,2.71,2.29,1.71.95.72c.67.51,1.26,1,1.86,1.36,1.14.77,2.28,1.53,3.43,2.28l3.88,2.6-5.24,2.22-.71.3-.54.55a5.33,5.33,0,0,0-1.7,3.88,5.4,5.4,0,0,0,1.7,3.88l.54.54.71.3,3.06,1.29-2.79,1.9-5,3.42-2.47,1.68.94,2.83,3.17,9.55.86,2.59.9,2.7h19.51l4.17,5.63-5.45,15.18-1,2.8,2.42,1.74,8.16,5.83,2.61,1.87,2.26,1.61,2.28-1.58,1.08-.73c.7-.48,1.29-.88,1.86-1.31l3.2-2.41c2.11-1.59,4.29-3.24,6.46-4.8a56.83,56.83,0,0,0,8,2.91L198,232.9l3.31,10.65.86,2.77h19.45l.86-2.77,4.19-13.5a56.69,56.69,0,0,0,9.36-2.87l.08,0,.65.48c3.53,3.15,8.2,7.21,10.7,9l2.33,1.66,2.31-1.71,6-4.47,7.14-5.31.11-.08.09-.08c.64-.54.95-.78,1.05-.85l3.75-2.7-3.23-3.31-13.94-14-.08-.08h0L250,202.69l-2.84-2.86-2.8,2.91a43.56,43.56,0,1,1-57-65.23,43.27,43.27,0,0,1,25.05-7.95,43.92,43.92,0,0,1,6,.42,43,43,0,0,1,7,1.55c1.38.44,2.8,1,4.19,1.56a44.06,44.06,0,0,1,11.13,7c.91.78,1.7,1.5,2.42,2.22l2.86,2.85,2.89-2.84L252,139l.5-.53,3.14-3.31L265.25,125l1.41-1.5,1.59-1.67,3.26-3.44-4-2.58-2.21-1.44c-2.86-1.87-9.78-6.41-12.42-8.29l-2.35-1.66-2.29,1.72-1.11.82L236,115.3l-.68.51-1.4-.46-2.36-.77-2.16-.71-1.19-.39-.24-.8-1.79-5.81-1.86-6-.86-2.78-.87-2.77Z" transform="translate(-18.68 -56.91)"/><path class="cls-1" d="M212.37,218.61a45.47,45.47,0,1,1,16-88,44.17,44.17,0,0,1,4.88,2.17,45.09,45.09,0,0,1,5.12,3.11c1.1.77,2.18,1.59,3.21,2.45s1.91,1.66,2.8,2.55l1.4,1.4L231,157.16l-1.4-1.39a22.83,22.83,0,0,0-32.25,0,22.43,22.43,0,0,0-5.62,9.29l7.58,4.07.21.2a3.31,3.31,0,0,1,0,5l-.21.2-7.58,4.07a22.23,22.23,0,0,0,5.62,9.37,22.85,22.85,0,0,0,32.25,0l1.4-1.39,10.75,10.75L242,197l1.13,1.6,3.82,3.84-1.15,1.38A45.65,45.65,0,0,1,212.37,218.61Z" transform="translate(-18.68 -56.91)"/><path d="M212.37,129.64a43.18,43.18,0,0,1,15.34,2.85,40.64,40.64,0,0,1,4.67,2.07,41.9,41.9,0,0,1,4.89,3c1.06.74,2.09,1.52,3.08,2.35s1.82,1.59,2.68,2.44l-7,7-3.32,3.33L231,154.37a24.82,24.82,0,0,0-35,0,24.29,24.29,0,0,0-6.54,11.68l8.7,4.67a1.36,1.36,0,0,1,0,2.18l-8.7,4.68a24.23,24.23,0,0,0,6.54,11.75,24.79,24.79,0,0,0,35,0l10.72,10.73,0,0,2.56,2.57,0,0a43.47,43.47,0,1,1-31.9-73m0-3.94a47.44,47.44,0,1,0,34.79,79.6l2.57-2.78-2.64-2.71-2.55-2.57-2.76-2.78-.05,0-8-8L231,183.76l-2.79,2.79a20.8,20.8,0,0,1-34.07-7l5.84-3.14.52-.28.41-.41a5.27,5.27,0,0,0,0-7.75l-.41-.41-.52-.28-5.83-3.13a20.86,20.86,0,0,1,34.06-7L231,160l2.79-2.79,1.75-1.76,3.33-3.32,7-7,2.8-2.8-2.81-2.79c-.86-.86-1.82-1.73-2.92-2.66s-2.12-1.7-3.35-2.56a46.56,46.56,0,0,0-5.34-3.24,45.48,45.48,0,0,0-5.09-2.26,47.12,47.12,0,0,0-16.74-3.1Z" transform="translate(-18.68 -56.91)"/></svg>