<?xml version="1.0" encoding="utf-8"?>
<!-- Generator: Adobe Illustrator 22.1.0, SVG Export Plug-In . SVG Version: 6.00 Build 0)  -->
<svg version="1.1" id="Layer_1" xmlns="http://www.w3.org/2000/svg" xmlns:xlink="http://www.w3.org/1999/xlink" x="0px" y="0px"
	 viewBox="0 0 500 500" style="enable-background:new 0 0 500 500;" xml:space="preserve">
<style type="text/css">
	.st0{fill:#3F8DE0;}
	.st1{fill:#3D3D3D;}
	.st2{fill:#303030;}
	.st3{fill:#FFFFFF;}
	.st4{fill:#0044A0;}
</style>
<g>
	<g>
		<g>
			<g>
				<g>
					<g>
						<g>
							<polygon class="st0" points="111.4,342.1 20.4,342.1 49.7,310.8 20.4,280.1 111.4,280.1 							"/>
						</g>
					</g>
					<g>
						<g>
							<path d="M111.4,343.9h-91c-0.7,0-1.3-0.4-1.6-1.1s-0.2-1.4,0.3-1.9l28.2-30.2l-28.1-29.4c-0.5-0.5-0.6-1.3-0.3-1.9
								s0.9-1.1,1.6-1.1h91c1,0,1.8,0.8,1.8,1.8v62C113.2,343.1,112.4,343.9,111.4,343.9z M24.5,340.4h85.2v-58.5H24.6L51,309.6
								c0.6,0.7,0.7,1.7,0,2.4L24.5,340.4z"/>
						</g>
					</g>
				</g>
			</g>
			<g>
				<g>
					<g>
						<g>
							<g>
								<polygon points="110,287.5 83.5,291.1 110,294.9 								"/>
							</g>
						</g>
					</g>
					<g>
						<g>
							<g>
								<polygon points="110.4,294.4 72.9,298.5 110.4,302.5 								"/>
							</g>
						</g>
					</g>
					<g>
						<g>
							<g>
								<polygon points="110.8,301.3 62.3,306 110.9,310.2 								"/>
							</g>
						</g>
					</g>
					<g>
						<g>
							<g>
								<polygon points="111.3,308.2 51.8,313.5 111.3,317.8 								"/>
							</g>
						</g>
					</g>
				</g>
				<g>
					<g>
						<g>
							<g>
								<polygon points="110,338.5 83.5,335 110,331.2 								"/>
							</g>
						</g>
					</g>
					<g>
						<g>
							<g>
								<polygon points="110.4,331.7 72.9,327.5 110.4,323.5 								"/>
							</g>
						</g>
					</g>
					<g>
						<g>
							<g>
								<polygon points="110.8,324.8 62.3,320.1 110.9,315.9 								"/>
							</g>
						</g>
					</g>
				</g>
			</g>
		</g>
		<g>
			<g>
				<g>
					<g>
						<g>
							<polygon class="st0" points="388.6,342.1 479.6,342.1 450.3,310.8 479.6,280.1 388.6,280.1 							"/>
						</g>
					</g>
					<g>
						<g>
							<path d="M386.8,342.1v-62c0-1,0.8-1.8,1.8-1.8h91c0.7,0,1.3,0.4,1.6,1.1s0.1,1.4-0.3,1.9l-28.1,29.4l28.2,30.2
								c0.5,0.5,0.6,1.3,0.3,1.9s-0.9,1.1-1.6,1.1h-91C387.6,343.9,386.8,343.1,386.8,342.1z M449,312c-0.6-0.7-0.6-1.7,0-2.4
								l26.4-27.7h-85.1v58.5h85.2L449,312z"/>
						</g>
					</g>
				</g>
			</g>
			<g>
				<g>
					<g>
						<g>
							<g>
								<polygon points="390,287.5 416.5,291.1 390,294.9 								"/>
							</g>
						</g>
					</g>
					<g>
						<g>
							<g>
								<polygon points="389.6,294.4 427.1,298.5 389.6,302.5 								"/>
							</g>
						</g>
					</g>
					<g>
						<g>
							<g>
								<polygon points="389.2,301.3 437.7,306 389.1,310.2 								"/>
							</g>
						</g>
					</g>
					<g>
						<g>
							<g>
								<polygon points="388.7,308.2 448.2,313.5 388.7,317.8 								"/>
							</g>
						</g>
					</g>
				</g>
				<g>
					<g>
						<g>
							<g>
								<polygon points="390,338.5 416.5,335 390,331.2 								"/>
							</g>
						</g>
					</g>
					<g>
						<g>
							<g>
								<polygon points="389.6,331.7 427.1,327.5 389.6,323.5 								"/>
							</g>
						</g>
					</g>
					<g>
						<g>
							<g>
								<polygon points="389.2,324.8 437.7,320.1 389.1,315.9 								"/>
							</g>
						</g>
					</g>
				</g>
			</g>
		</g>
		<g>
			<g>
				<g>
					<g>
						<polygon class="st1" points="250,68.8 384.2,121.6 384.2,378.4 249.8,431.2 115.8,378.4 115.8,121.6 						"/>
					</g>
				</g>
				<g>
					<g>
						<path class="st2" d="M250,59.7l-142.7,56.2v268.2l142.5,56.2l142.8-56.2V115.9L250,59.7z M390,382.3l-140.2,55.1L110,382.3
							V117.7l140-55.1l140,55.1V382.3z"/>
					</g>
				</g>
				<g>
					<g>
						<path d="M251,57.3l-1-0.4l-145.3,57.2v271.8l145.1,57.2l145.5-57.2V114.1L251,57.3z M390,382.3l-140.2,55.1L110,382.3V117.7
							l140-55.1l140,55.1V382.3z"/>
					</g>
				</g>
				<g>
					<g>
						<path class="st3" d="M250,62.6l-140,55.1v264.6l139.8,55.1L390,382.3V117.7L250,62.6z M384.2,378.4l-134.4,52.8l-134.1-52.8
							V121.6L250,68.8l134.2,52.8V378.4z"/>
					</g>
				</g>
			</g>
			<g>
				<g>
					<g>
						<path d="M249.8,432.2L114.9,379V121l0.6-0.2l134.6-53l0.3,0.1L385.1,121v258l-0.6,0.2L249.8,432.2z M116.6,377.8l133.2,52.5
							l133.6-52.5V122.2L250,69.7l-133.4,52.5V377.8z"/>
					</g>
				</g>
				<g>
					<g>
						<path d="M249.8,432.1c-0.1,0-0.2,0-0.3-0.1l-134.1-52.8c-0.3-0.1-0.6-0.5-0.6-0.8V121.6c0-0.4,0.2-0.7,0.6-0.8L249.7,68
							c0.2-0.1,0.4-0.1,0.6,0l134.2,52.8c0.3,0.1,0.6,0.5,0.6,0.8v256.8c0,0.4-0.2,0.7-0.6,0.8L250.1,432
							C250,432.1,249.9,432.1,249.8,432.1z M116.6,377.8l133.2,52.5l133.6-52.5V122.2L250,69.7l-133.4,52.5V377.8z"/>
					</g>
				</g>
			</g>
			<g>
				<g>
					<g>
						<path d="M249.8,432.2L114.9,379V121l0.6-0.2l134.6-53l0.3,0.1L385.1,121v258l-0.6,0.2L249.8,432.2z M116.6,377.8l133.2,52.5
							l133.6-52.5V122.2L250,69.7l-133.4,52.5V377.8z"/>
					</g>
				</g>
				<g>
					<g>
						<path d="M249.8,432.1c-0.1,0-0.2,0-0.3-0.1l-134.1-52.8c-0.3-0.1-0.6-0.5-0.6-0.8V121.6c0-0.4,0.2-0.7,0.6-0.8l134.2-52.8
							c0.2-0.1,0.4-0.1,0.6,0l134.2,52.8c0.3,0.1,0.6,0.5,0.6,0.8v256.8c0,0.4-0.2,0.7-0.6,0.8l-134.4,52.8
							C250,432.1,249.9,432.1,249.8,432.1z M116.6,377.8l133.2,52.5l133.6-52.5V122.2L250,69.7l-133.4,52.5V377.8z"/>
					</g>
				</g>
			</g>
		</g>
		<g>
			<g>
				<g>
					<g>
						<g>
							<rect x="89.6" y="252.6" class="st0" width="320.8" height="70.4"/>
						</g>
					</g>
					<g>
						<g>
							<path d="M410.4,325.3H89.6c-1.2,0-2.2-1-2.2-2.2v-70.4c0-1.2,1-2.2,2.2-2.2h320.8c1.2,0,2.2,1,2.2,2.2v70.4
								C412.6,324.3,411.6,325.3,410.4,325.3z M91.8,320.9h316.4v-66H91.8V320.9z"/>
						</g>
					</g>
				</g>
			</g>
			<g>
				<g>
					<g>
						<g>
							<polygon points="91.7,254.8 90.4,260.2 132.9,257.1 							"/>
						</g>
					</g>
					<g>
						<g>
							<polygon points="91.3,262.6 89.8,267.9 138.1,264.8 							"/>
						</g>
					</g>
					<g>
						<g>
							<polygon points="90.9,270.3 89.3,275.7 143.4,272.6 							"/>
						</g>
					</g>
					<g>
						<g>
							<polygon points="90.6,278.1 88.7,283.4 148.6,280.3 							"/>
						</g>
					</g>
					<g>
						<g>
							<polygon points="91.7,320.7 132.9,318.5 90.4,315.4 							"/>
						</g>
					</g>
					<g>
						<g>
							<polygon points="91.3,313 138.1,310.8 89.8,307.6 							"/>
						</g>
					</g>
					<g>
						<g>
							<polygon points="90.9,305.3 143.4,303 89.3,299.9 							"/>
						</g>
					</g>
					<g>
						<g>
							<polygon points="90.6,297.5 148.6,295.3 88.7,292.1 							"/>
						</g>
					</g>
					<g>
						<g>
							<polygon points="153.8,287.5 88.2,284.4 90.2,289.8 							"/>
						</g>
					</g>
				</g>
				<g>
					<g>
						<g>
							<polygon points="408.3,254.8 409.6,260.2 367.1,257.1 							"/>
						</g>
					</g>
					<g>
						<g>
							<polygon points="408.7,262.6 410.2,267.9 361.9,264.8 							"/>
						</g>
					</g>
					<g>
						<g>
							<polygon points="409.1,270.3 410.7,275.7 356.6,272.6 							"/>
						</g>
					</g>
					<g>
						<g>
							<polygon points="409.4,278.1 411.3,283.4 351.4,280.3 							"/>
						</g>
					</g>
					<g>
						<g>
							<polygon points="408.3,320.7 367.1,318.5 409.6,315.4 							"/>
						</g>
					</g>
					<g>
						<g>
							<polygon points="408.7,313 361.9,310.8 410.2,307.6 							"/>
						</g>
					</g>
					<g>
						<g>
							<polygon points="409.1,305.3 356.6,303 410.7,299.9 							"/>
						</g>
					</g>
					<g>
						<g>
							<polygon points="409.4,297.5 351.4,295.3 411.3,292.1 							"/>
						</g>
					</g>
					<g>
						<g>
							<polygon points="346.2,287.5 411.8,284.4 409.8,289.8 							"/>
						</g>
					</g>
				</g>
			</g>
		</g>
		<g>
			<g>
				<g>
					<g>
						<g>
							<g>
								<rect x="117.8" y="326" width="265.8" height="51.2"/>
							</g>
						</g>
						<g>
							<g>
								<path d="M383.6,378.8H117.8c-1,0-1.8-0.7-1.8-1.6V326c0-0.9,0.8-1.6,1.8-1.6h265.8c1,0,1.8,0.7,1.8,1.6v51.2
									C385.4,378.1,384.6,378.8,383.6,378.8z M119.6,375.6h262.1v-48H119.6V375.6z"/>
							</g>
						</g>
					</g>
				</g>
				<g>
					<g>
						<g>
							<g>
								<polygon class="st3" points="140.5,329.2 119.6,331.3 119.6,327.7 								"/>
							</g>
						</g>
						<g>
							<g>
								<polygon class="st3" points="143.3,334.9 119.6,336.9 119.6,333.3 								"/>
							</g>
						</g>
						<g>
							<g>
								<polygon class="st3" points="146.1,340.5 119.6,342.6 119.6,339 								"/>
							</g>
						</g>
						<g>
							<g>
								<polygon class="st3" points="148.9,346.1 119.6,348.2 119.6,344.6 								"/>
							</g>
						</g>
						<g>
							<g>
								<polygon class="st3" points="140.5,373.9 119.6,375.5 119.6,371.8 								"/>
							</g>
						</g>
						<g>
							<g>
								<polygon class="st3" points="143.3,368.3 119.6,369.8 119.6,366.2 								"/>
							</g>
						</g>
						<g>
							<g>
								<polygon class="st3" points="146.1,362.6 119.6,364.2 119.6,360.6 								"/>
							</g>
						</g>
						<g>
							<g>
								<polygon class="st3" points="148.9,357 119.6,358.6 119.6,354.9 								"/>
							</g>
						</g>
						<g>
							<g>
								<polygon class="st3" points="151.7,351.4 119.6,352.9 119.6,349.3 								"/>
							</g>
						</g>
					</g>
					<g>
						<g>
							<g>
								<polygon class="st3" points="381.8,327.7 381.8,331.3 361.6,329.2 								"/>
							</g>
						</g>
						<g>
							<g>
								<polygon class="st3" points="381.8,333.3 381.8,336.9 358.9,334.9 								"/>
							</g>
						</g>
						<g>
							<g>
								<polygon class="st3" points="381.8,339 381.8,342.6 356.2,340.5 								"/>
							</g>
						</g>
						<g>
							<g>
								<polygon class="st3" points="381.8,344.6 381.8,348.2 353.5,346.1 								"/>
							</g>
						</g>
						<g>
							<g>
								<polygon class="st3" points="381.8,371.8 381.8,375.5 361.6,373.9 								"/>
							</g>
						</g>
						<g>
							<g>
								<polygon class="st3" points="381.8,366.2 381.8,369.8 358.9,368.3 								"/>
							</g>
						</g>
						<g>
							<g>
								<polygon class="st3" points="381.8,360.6 381.8,364.2 356.2,362.6 								"/>
							</g>
						</g>
						<g>
							<g>
								<polygon class="st3" points="381.8,354.9 381.8,358.6 353.5,357 								"/>
							</g>
						</g>
						<g>
							<g>
								<polygon class="st3" points="381.8,349.3 381.8,352.9 350.8,351.4 								"/>
							</g>
						</g>
					</g>
				</g>
			</g>
		</g>
	</g>
	<g>
		<path d="M152.5,313.7c-1.7,0-3.4-0.3-5-0.8c-1.6-0.5-2.9-1.3-4.1-2.2c-1.2-1-2.1-2.2-2.8-3.6c-0.7-1.4-1-3-1-4.8v-31.4
			c0-1.8,0.3-3.4,1-4.8c0.7-1.4,1.6-2.6,2.8-3.6c1.2-1,2.5-1.7,4.1-2.2c1.6-0.5,3.2-0.8,5-0.8c1.7,0,3.4,0.3,4.9,0.8
			c1.5,0.5,2.9,1.3,4,2.2c1.2,1,2.1,2.2,2.7,3.6c0.7,1.4,1,3,1,4.8v6h-4.2c-1.2,0-2.2-0.4-3-1.1c-0.8-0.7-1.2-1.7-1.2-2.8v-2.7
			c0-0.9-0.4-1.8-1.2-2.7c-0.8-0.9-1.9-1.3-3.2-1.3c-1.3,0-2.4,0.4-3.1,1.3c-0.8,0.9-1.2,1.8-1.2,2.7v33.1c0,0.8,0.4,1.5,1.3,2.3
			c0.8,0.8,1.9,1.2,3.3,1.2c0.7,0,1.3-0.1,1.8-0.4c0.5-0.2,1-0.5,1.4-0.9c0.4-0.4,0.7-0.8,0.9-1.2c0.2-0.4,0.3-0.9,0.3-1.3v-2.8
			c0-1.1,0.3-2,1-2.8c0.6-0.8,1.6-1.2,2.8-1.2h4.5v6c0,1.8-0.3,3.4-1,4.8c-0.7,1.4-1.6,2.6-2.7,3.6c-1.2,1-2.5,1.7-4,2.2
			C155.9,313.5,154.3,313.7,152.5,313.7z"/>
		<path d="M182.9,313.7c-1.7,0-3.4-0.2-4.9-0.6c-1.5-0.4-2.9-1.1-4-2c-1.2-0.9-2.1-2-2.8-3.4c-0.7-1.3-1-2.9-1-4.7v-32.8
			c0-1.8,0.3-3.4,1-4.7c0.7-1.3,1.6-2.5,2.8-3.3c1.2-0.9,2.5-1.5,4-2c1.5-0.4,3.2-0.7,4.9-0.7c1.7,0,3.4,0.2,5,0.7
			c1.6,0.5,2.9,1.1,4.1,2c1.2,0.9,2.1,2,2.8,3.3c0.7,1.3,1,2.9,1,4.7V303c0,1.8-0.3,3.4-1,4.7c-0.7,1.3-1.6,2.5-2.8,3.4
			c-1.2,0.9-2.5,1.6-4.1,2C186.3,313.5,184.6,313.7,182.9,313.7z M187.4,271c0-1.8-0.4-3.1-1.3-3.7c-0.8-0.6-1.9-1-3.3-1
			c-1.3,0-2.3,0.3-3.2,1c-0.8,0.6-1.3,1.9-1.3,3.7v31.1c0,1.8,0.4,3.1,1.3,3.8c0.8,0.7,1.9,1,3.2,1c1.3,0,2.4-0.4,3.3-1.1
			c0.8-0.7,1.3-2,1.3-3.9V271z"/>
		<path d="M229.1,260.2v3c0,0.7,0,1.3-0.1,1.8c-0.1,0.6-0.4,1.1-0.9,1.5c-0.2,0.2-0.3,0.4-0.5,0.5c-0.1,0.2-0.2,0.5-0.2,0.9v43.6
			c0,0.5-0.1,0.9-0.4,1.2c-0.2,0.3-0.6,0.5-1.1,0.5h-4.1c-0.7,0-1.2-0.3-1.5-0.9s-0.7-1.2-1-2c-0.1-0.3-0.4-1.1-0.9-2.4
			c-0.5-1.3-1.1-2.9-1.8-4.7c-0.7-1.8-1.4-3.8-2.2-5.8c-0.8-2.1-1.5-4-2.2-5.7c-0.7-1.7-1.2-3.2-1.7-4.4c-0.5-1.2-0.7-1.8-0.7-1.8
			c0-0.1,0-0.2-0.1-0.2c0,0-0.1,0.1-0.1,0.3v19.7c0,0.5,0.1,0.8,0.2,1c0.1,0.2,0.3,0.4,0.5,0.6c0.4,0.3,0.8,0.7,1.1,1.2
			c0.4,0.5,0.6,1.2,0.6,2v3H199v-3c0-0.7,0.2-1.3,0.5-1.8c0.3-0.6,0.8-1.1,1.3-1.5c0.2-0.2,0.4-0.4,0.5-0.6c0.1-0.2,0.1-0.4,0.1-0.8
			v-38.1c-0.5-0.1-0.9-0.4-1.2-0.7c-0.3-0.3-0.6-0.7-0.8-1.2c-0.2-0.5-0.4-1.2-0.4-2v-3.3h6.2c0.6,0,1.2,0.1,1.8,0.4
			c0.7,0.3,1.2,0.9,1.6,2c0,0.1,0.3,0.7,0.8,1.9c0.5,1.2,1,2.7,1.7,4.5c0.7,1.8,1.4,3.8,2.3,5.9c0.8,2.1,1.6,4.2,2.4,6.1
			c0.8,2,1.4,3.7,2,5.2c0.6,1.5,0.9,2.6,1.1,3.2c0,0.1,0.1,0.2,0.1,0c0-0.1,0.1-0.3,0.1-0.4v-21.2c0-0.5-0.1-0.8-0.2-1
			c-0.1-0.2-0.3-0.4-0.5-0.6c-0.4-0.3-0.8-0.7-1.1-1.2c-0.4-0.5-0.6-1.2-0.6-2v-3H229.1z"/>
		<path d="M255.5,260.8c0.4,0.4,0.6,0.9,0.6,1.5v7.7h-2.8c-1,0-1.8-0.2-2.3-0.7c-0.5-0.5-0.9-0.9-1.2-1.3c-0.1-0.2-0.3-0.5-0.5-0.6
			c-0.2-0.2-0.6-0.3-1.1-0.3h-5c-0.3,0-0.6,0.1-0.8,0.3c-0.2,0.2-0.3,0.5-0.3,0.7v13.3c0,0.4,0.1,0.7,0.2,0.9
			c0.2,0.1,0.4,0.2,0.8,0.2h7.6c0.4,0,0.6,0.2,0.8,0.5c0.1,0.3,0.2,0.7,0.2,1.1v4.4c0,0.3-0.1,0.5-0.3,0.7c-0.2,0.2-0.4,0.3-0.6,0.3
			h-7.7c-0.2,0-0.5,0.1-0.7,0.3c-0.2,0.2-0.3,0.4-0.3,0.7v15c0,0.4,0.1,0.7,0.2,0.9c0.1,0.2,0.3,0.4,0.5,0.6
			c0.4,0.3,0.8,0.7,1.1,1.2c0.4,0.5,0.6,1.2,0.6,2v3h-13.1v-3c0-0.8,0.2-1.5,0.6-2c0.4-0.5,0.8-0.9,1.1-1.2c0.2-0.2,0.4-0.4,0.5-0.6
			c0.1-0.2,0.2-0.5,0.2-1V268c0-0.7-0.3-1.2-0.9-1.5c-0.5-0.2-0.8-0.6-1.1-1.1c-0.3-0.5-0.4-1.3-0.4-2.4v-2.8h22.8
			C254.7,260.2,255.1,260.4,255.5,260.8z"/>
		<path d="M284.5,303v8.3c0,0.6-0.2,1-0.6,1.3c-0.4,0.3-0.8,0.5-1.1,0.5h-23.9v-3c0-1,0.1-1.8,0.4-2.4c0.3-0.5,0.7-0.9,1.1-1.2
			c0.2-0.1,0.4-0.3,0.6-0.5c0.2-0.2,0.3-0.5,0.3-0.9v-37.4c0-0.4-0.1-0.7-0.2-0.9c-0.1-0.2-0.3-0.4-0.5-0.5
			c-0.4-0.3-0.8-0.7-1.1-1.2c-0.4-0.5-0.6-1.2-0.6-2v-3H272v3c0,0.8-0.2,1.5-0.6,2c-0.4,0.5-0.8,0.9-1.1,1.2
			c-0.2,0.1-0.4,0.3-0.5,0.5c-0.1,0.2-0.2,0.5-0.2,1v37.7c0,0.7,0.3,1,1,1h5.6c0.7,0,1.2-0.3,1.5-0.9c0.2-0.5,0.6-1,1.2-1.7
			c0.6-0.7,1.4-1,2.4-1H284.5z"/>
		<path d="M298,305.4c0,0.5,0.1,0.8,0.2,1c0.1,0.2,0.3,0.4,0.5,0.6c0.4,0.3,0.8,0.7,1.1,1.2c0.4,0.5,0.6,1.2,0.6,2v3h-13.2v-3
			c0-0.8,0.2-1.5,0.6-2c0.4-0.5,0.8-0.9,1.1-1.2c0.2-0.2,0.3-0.4,0.5-0.6c0.1-0.2,0.2-0.5,0.3-0.8v-0.1V268c0-0.5-0.1-0.8-0.2-1
			c-0.1-0.2-0.3-0.4-0.5-0.6c-0.4-0.3-0.8-0.7-1.1-1.2c-0.4-0.5-0.6-1.2-0.6-2v-3h13.2v3c0,0.8-0.2,1.5-0.6,2
			c-0.4,0.5-0.8,0.9-1.1,1.2c-0.2,0.2-0.4,0.4-0.5,0.6c-0.1,0.2-0.2,0.5-0.2,1V305.4z"/>
		<path d="M316.6,313.7c-1.7,0-3.4-0.3-5-0.8c-1.6-0.5-2.9-1.3-4.1-2.2c-1.2-1-2.1-2.2-2.8-3.6c-0.7-1.4-1-3-1-4.8v-31.4
			c0-1.8,0.3-3.4,1-4.8c0.7-1.4,1.6-2.6,2.8-3.6c1.2-1,2.5-1.7,4.1-2.2c1.6-0.5,3.2-0.8,5-0.8s3.4,0.3,4.9,0.8
			c1.5,0.5,2.9,1.3,4,2.2c1.2,1,2.1,2.2,2.7,3.6c0.7,1.4,1,3,1,4.8v6H325c-1.2,0-2.2-0.4-3-1.1c-0.8-0.7-1.2-1.7-1.2-2.8v-2.7
			c0-0.9-0.4-1.8-1.2-2.7c-0.8-0.9-1.9-1.3-3.2-1.3c-1.3,0-2.4,0.4-3.2,1.3c-0.8,0.9-1.2,1.8-1.2,2.7v33.1c0,0.8,0.4,1.5,1.3,2.3
			c0.8,0.8,1.9,1.2,3.3,1.2c0.7,0,1.3-0.1,1.8-0.4c0.5-0.2,1-0.5,1.4-0.9c0.4-0.4,0.7-0.8,0.9-1.2c0.2-0.4,0.3-0.9,0.3-1.3v-2.8
			c0-1.1,0.3-2,1-2.8c0.6-0.8,1.6-1.2,2.8-1.2h4.5v6c0,1.8-0.3,3.4-1,4.8c-0.7,1.4-1.6,2.6-2.7,3.6c-1.2,1-2.5,1.7-4,2.2
			C319.9,313.5,318.3,313.7,316.6,313.7z"/>
		<path d="M360.5,260.9c0.5,0.5,0.7,1.3,0.7,2.5v3.1v3.5h-3.1c-1.4,0-2.4-0.7-3-2c-0.2-0.5-0.5-0.8-0.8-0.8
			c-0.3-0.1-0.6-0.1-0.9-0.1H352c-0.3,0-0.5,0.1-0.7,0.3c-0.2,0.2-0.3,0.5-0.3,0.9v37.2c0,0.5,0.1,0.8,0.3,1
			c0.1,0.2,0.3,0.4,0.5,0.5c0.4,0.3,0.7,0.7,1.1,1.2c0.4,0.5,0.5,1.2,0.5,2v3h-13v-3c0-0.8,0.2-1.5,0.6-2c0.4-0.5,0.8-0.9,1.1-1.2
			c0.2-0.1,0.4-0.3,0.5-0.5c0.1-0.2,0.2-0.5,0.2-1v-37.3c0-0.4-0.1-0.6-0.4-0.8c-0.2-0.2-0.5-0.2-0.7-0.2h-1.2
			c-0.2,0-0.5,0.1-0.9,0.2c-0.4,0.2-0.7,0.4-0.9,0.8c-0.3,0.7-0.6,1.2-0.8,1.5c-0.3,0.3-1,0.5-2.2,0.5h-3.2v-3.9v-2.8
			c0-1.1,0.2-1.9,0.5-2.4s1.1-0.8,2.4-0.8H358C359.2,260.2,360,260.4,360.5,260.9z"/>
	</g>
	<g>
		<path class="st3" d="M169.2,370.2c-1.4,0-2.7-0.2-3.9-0.6c-1.2-0.4-2.3-1-3.2-1.8c-0.9-0.8-1.6-1.7-2.2-2.8
			c-0.5-1.1-0.8-2.4-0.8-3.8v-24.7c0-1.4,0.3-2.7,0.8-3.8c0.5-1.1,1.3-2,2.2-2.8c0.9-0.8,2-1.3,3.2-1.7c1.2-0.4,2.5-0.6,3.9-0.6
			c1.4,0,2.7,0.2,3.9,0.6s2.3,1,3.2,1.7c0.9,0.8,1.6,1.7,2.1,2.8c0.5,1.1,0.8,2.4,0.8,3.8v4.7h-3.3c-0.9,0-1.7-0.3-2.4-0.9
			c-0.6-0.6-1-1.3-1-2.2v-2.1c0-0.7-0.3-1.4-1-2.1c-0.6-0.7-1.5-1-2.5-1c-1,0-1.9,0.3-2.5,1c-0.6,0.7-0.9,1.4-0.9,2.1v25.9
			c0,0.6,0.3,1.2,1,1.8c0.7,0.6,1.5,0.9,2.6,0.9c0.5,0,1-0.1,1.4-0.3c0.4-0.2,0.8-0.4,1.1-0.7c0.3-0.3,0.6-0.6,0.7-0.9
			c0.2-0.3,0.2-0.7,0.2-1v-2.2c0-0.9,0.3-1.6,0.8-2.2c0.5-0.6,1.2-0.9,2.2-0.9h3.5v4.7c0,1.4-0.3,2.7-0.8,3.8
			c-0.5,1.1-1.2,2-2.1,2.8c-0.9,0.8-2,1.3-3.2,1.8C171.9,370,170.6,370.2,169.2,370.2z"/>
		<path class="st3" d="M205.7,330.6L205.7,330.6c0,1-0.4,1.8-1.3,2.5c-0.1,0.1-0.3,0.2-0.4,0.3c-0.1,0.1-0.2,0.3-0.2,0.5v0.2v29.6
			c0,0.4,0.1,0.6,0.2,0.8c0.1,0.2,0.3,0.3,0.4,0.4c0.3,0.2,0.6,0.5,0.9,0.9c0.3,0.4,0.4,0.9,0.4,1.6v2.4h-10.3v-2.4
			c0-0.6,0.1-1.1,0.4-1.6s0.6-0.7,0.9-0.9c0.2-0.2,0.3-0.3,0.4-0.4c0.1-0.1,0.1-0.3,0.1-0.6v-12.2c0-0.5-0.3-0.8-0.8-0.8H191
			c-0.2,0-0.4,0.1-0.6,0.2c-0.2,0.2-0.2,0.3-0.2,0.6v12.1c0,0.3,0.1,0.6,0.2,0.7c0.1,0.2,0.2,0.3,0.4,0.4c0.3,0.2,0.6,0.5,0.9,0.9
			c0.3,0.4,0.4,0.9,0.4,1.6v2.4h-10.3v-2.4c0-0.6,0.1-1.1,0.4-1.6s0.6-0.7,0.9-0.9c0.2-0.2,0.3-0.3,0.4-0.4c0.1-0.1,0.1-0.4,0.1-0.7
			v-29.4c0-0.4,0-0.6-0.1-0.8c-0.1-0.1-0.2-0.3-0.4-0.4c-0.9-0.6-1.3-1.4-1.3-2.4v-2.4h10.3v0.1v2.3v0.1c0,0.4-0.1,0.9-0.4,1.4
			c-0.2,0.5-0.6,0.8-1,1.1c-0.1,0.2-0.3,0.3-0.4,0.4c-0.1,0.1-0.2,0.3-0.2,0.6v10.4c0,0.3,0.1,0.5,0.3,0.6c0.2,0.1,0.4,0.2,0.6,0.2
			h5.5c0.3,0,0.5-0.1,0.6-0.3c0.1-0.2,0.2-0.4,0.2-0.6v-10.3c0-0.4,0-0.6-0.1-0.8c-0.1-0.1-0.2-0.3-0.4-0.4
			c-0.8-0.6-1.3-1.4-1.3-2.4v-2.4h10.3V330.6z"/>
		<path class="st3" d="M232.3,365.1c0.3,0.2,0.6,0.5,0.9,0.9c0.3,0.4,0.4,0.9,0.4,1.6v2.2h-10.3v-2c0-0.6,0.1-1.1,0.2-1.4
			c0.1-0.3,0.3-0.6,0.4-0.8c0.2-0.2,0.3-0.4,0.5-0.6c0.1-0.2,0.2-0.5,0.2-0.8c-0.2-1-0.3-1.8-0.4-2.5c-0.1-0.7-0.1-1.2-0.2-1.6
			c-0.1-0.4-0.2-0.7-0.3-0.8c-0.1-0.2-0.3-0.3-0.6-0.3h-0.4h-4.7c-0.3,0-0.6,0-0.7,0.1c-0.1,0.1-0.2,0.3-0.3,0.6
			c0,0.2-0.1,0.5-0.1,1c0,0.5-0.1,1-0.1,1.5c-0.1,0.6-0.1,1.2-0.2,1.9c0,0.4,0.1,0.7,0.2,0.9c0.1,0.2,0.3,0.4,0.4,0.6
			c0.1,0.2,0.3,0.5,0.4,0.8s0.2,0.7,0.2,1.3v2h-10.1v-2.2c0-0.6,0.1-1,0.3-1.3c0.2-0.3,0.4-0.6,0.6-0.8c0.2-0.2,0.5-0.4,0.7-0.7
			c0.2-0.2,0.4-0.5,0.5-0.8l3.1-14.7c0.4-1.8,0.7-3.6,1.1-5.4c0.4-1.8,0.7-3.3,1-4.7c0.3-1.4,0.5-2.5,0.7-3.4
			c0.2-0.9,0.3-1.3,0.3-1.4v-0.3c0-0.3-0.1-0.5-0.3-0.7c-0.2-0.2-0.4-0.4-0.6-0.6c-0.2-0.2-0.4-0.5-0.6-0.9
			c-0.2-0.4-0.3-0.9-0.3-1.7v-2c2,0,3.6,0,4.8,0c1.2,0,2.2,0.1,3,0.2c0.7,0.1,1.3,0.4,1.6,0.8c0.4,0.4,0.6,0.9,0.8,1.6
			c0,0.1,0.2,0.7,0.4,1.7c0.2,1,0.5,2.3,0.8,3.9c0.3,1.6,0.7,3.4,1.1,5.3c0.4,2,0.8,4,1.2,6c1,4.8,2.1,10.2,3.3,16.2
			c0.1,0.3,0.2,0.5,0.3,0.7C232,364.8,232.1,365,232.3,365.1z M222.7,353.7c0.5,0,0.7-0.2,0.6-0.6l-1.3-7.7c-0.2-1-0.4-1.9-0.5-2.8
			c-0.1-0.9-0.3-1.8-0.4-2.5c-0.1-0.7-0.2-1.3-0.3-1.8c-0.1-0.5-0.1-0.7-0.1-0.8h-0.1c0,0-0.1,0.4-0.2,1.1c-0.1,0.7-0.3,1.6-0.4,2.7
			c-0.2,1.1-0.4,2.3-0.6,3.6c-0.2,1.3-0.4,2.5-0.6,3.7c-0.2,1.1-0.4,2.1-0.5,2.9c-0.1,0.8-0.2,1.3-0.2,1.4c0,0.3,0,0.4,0.1,0.5
			c0.1,0.1,0.3,0.1,0.7,0.1h1.8H222.7z"/>
		<path class="st3" d="M270.3,332.3c-0.2,0.4-0.4,0.7-0.6,0.9c-0.3,0.3-0.6,0.4-0.9,0.5v30.1c0,0.4,0.1,0.6,0.2,0.8
			c0.1,0.1,0.2,0.3,0.4,0.4c0.3,0.2,0.6,0.5,0.9,0.9s0.4,0.9,0.4,1.6v2.4h-10.3v-2.4c0-0.6,0.1-1.1,0.4-1.6c0.3-0.4,0.6-0.7,0.9-0.9
			c0.2-0.1,0.3-0.2,0.4-0.4c0.1-0.2,0.1-0.4,0.1-0.8v-20.9c0,0,0-0.1,0-0.1c0,0-0.1,0-0.1,0.2c-1.1,2.5-2.2,4.7-3.1,6.7
			c-0.4,0.9-0.8,1.7-1.2,2.5c-0.4,0.8-0.7,1.6-1.1,2.3c-0.3,0.7-0.6,1.3-0.8,1.8c-0.2,0.5-0.4,0.8-0.4,0.9c-0.1,0.3-0.4,0.5-0.9,0.6
			c-0.5,0.1-1,0.2-1.5,0.2c-0.5,0-1-0.1-1.5-0.2c-0.5-0.1-0.8-0.3-0.9-0.6c-0.1-0.1-0.2-0.4-0.4-0.9c-0.2-0.5-0.5-1-0.8-1.7
			c-0.3-0.7-0.7-1.4-1.1-2.2c-0.4-0.8-0.8-1.6-1.1-2.5c-0.9-2-1.9-4.1-3.1-6.6c0-0.1-0.1-0.1-0.1-0.1c-0.1,0-0.1,0.1-0.1,0.3v20.3
			c0,0.4,0.1,0.6,0.2,0.8c0.1,0.2,0.2,0.3,0.4,0.4c0.3,0.2,0.6,0.5,0.9,0.9c0.3,0.4,0.4,0.9,0.4,1.6v2.4h-10.3v-2.4
			c0-0.6,0.1-1.1,0.4-1.6s0.6-0.7,0.9-0.9c0.1-0.1,0.3-0.2,0.4-0.4c0.1-0.2,0.2-0.4,0.2-0.7v-30.2c-0.4-0.1-0.7-0.2-0.9-0.5
			c-0.3-0.2-0.5-0.5-0.7-0.9c-0.2-0.4-0.3-0.9-0.3-1.6v-2.5h7.6c0.5,0,0.9,0.3,1.2,0.8l8.8,19.3l8.6-19.3c0.2-0.3,0.4-0.6,0.8-0.7
			c0.4-0.1,0.8-0.2,1.1-0.2h7.1v2.5C270.6,331.4,270.5,331.9,270.3,332.3z"/>
		<path class="st3" d="M291.6,348.4c0.9,0.6,1.4,1.5,1.7,2.5c0.3,1,0.4,2.2,0.4,3.6v6.3c0,2.7-0.7,4.9-2.2,6.6
			c-1.4,1.6-3.8,2.4-6.9,2.4h-12.1v-2.4c0-0.7,0.1-1.3,0.3-1.7c0.2-0.4,0.5-0.7,0.9-0.9c0.5-0.3,0.7-0.7,0.7-1.3v-29.2
			c0-0.6-0.2-1-0.7-1.2c-0.4-0.2-0.7-0.5-0.9-0.9c-0.2-0.4-0.3-1-0.3-1.9v-2.2h11.6c3.1,0,5.5,0.8,6.9,2.4c1.5,1.6,2.2,3.7,2.2,6.5
			v4.8c0,1.1-0.1,2.2-0.4,3.1c-0.2,0.9-0.7,1.6-1.4,2.3c-0.2,0.2-0.3,0.4-0.3,0.6C291.1,348,291.3,348.2,291.6,348.4z M280.9,344.9
			c0,0.4,0.2,0.6,0.6,0.6h2.5c1.1,0,1.9-0.3,2.2-1c0.3-0.6,0.4-1.6,0.4-2.9v-4.7c0-1.3-0.1-2.2-0.4-2.6c-0.3-0.5-1-0.7-2.2-0.7h-2.5
			c-0.4,0-0.6,0.2-0.6,0.7V344.9z M287.3,354.7c0-0.7,0-1.3,0-1.8c0-0.5-0.1-1-0.2-1.3c-0.1-0.4-0.3-0.7-0.6-0.9
			c-0.3-0.2-0.7-0.3-1.3-0.3h-3.4c-0.5,0-0.8,0.3-0.8,0.8v12.5c0,0.6,0.2,0.8,0.7,0.8h3c1.1,0,1.9-0.3,2.2-0.8s0.5-1.5,0.5-2.7
			V354.7z"/>
		<path class="st3" d="M304.9,333.9c-0.2,0.2-0.2,0.3-0.2,0.5v10.5c0,0.5,0.3,0.8,0.8,0.8h6.4c0.2,0,0.4,0.1,0.6,0.2
			c0.2,0.1,0.3,0.3,0.3,0.6v3.9c0,0.5-0.3,0.8-0.8,0.8h-6.5c-0.5,0-0.8,0.3-0.8,0.8v11.8c0,0.3,0.1,0.5,0.3,0.6
			c0.2,0.2,0.4,0.2,0.6,0.2h4.8c0.4,0,0.6-0.2,0.7-0.7c0.2-0.8,0.5-1.4,1.1-1.7c0.5-0.3,1.2-0.4,2.1-0.4h1.9v6.6
			c0,0.4-0.1,0.7-0.4,1s-0.6,0.4-1,0.4h-3.4h-11.7h-3.3v-2.2c0-0.8,0.1-1.4,0.3-1.9c0.2-0.4,0.5-0.7,0.9-0.9
			c0.2-0.1,0.4-0.2,0.5-0.4c0.1-0.2,0.2-0.5,0.2-0.7v-29.2c0-0.6-0.3-1-0.8-1.3c-0.3-0.2-0.6-0.5-0.8-0.9s-0.3-1-0.3-1.7v-2.4h18.1
			c0.4,0,0.8,0.2,1.2,0.5c0.4,0.3,0.6,0.6,0.6,0.9v6.3H314c-0.8,0-1.4-0.2-1.8-0.6c-0.4-0.4-0.8-0.7-0.9-1.1
			c-0.2-0.4-0.6-0.7-1.2-0.7h-4.6C305.3,333.6,305.1,333.7,304.9,333.9z"/>
		<path class="st3" d="M340.4,364.5c0.3,0.2,0.6,0.5,0.8,0.8c0.2,0.4,0.3,0.8,0.3,1.5v3h-5.4c-1,0-1.7-0.3-2.2-0.9
			c-0.5-0.6-0.7-1.3-0.7-2.1v-12.3c0-1.1-0.2-1.9-0.6-2.4c-0.4-0.5-1.2-0.8-2.4-0.8h-2.3c-0.5,0-0.7,0.3-0.7,0.8v11.7
			c0,0.4,0,0.6,0.1,0.8c0.1,0.1,0.2,0.3,0.4,0.4c0.3,0.2,0.6,0.5,0.9,0.9s0.4,0.9,0.4,1.6v2.4h-10.3v-2.4c0-0.6,0.1-1.1,0.4-1.6
			s0.6-0.7,0.9-0.9c0.1-0.1,0.3-0.2,0.4-0.4c0.1-0.2,0.2-0.4,0.2-0.7v-29.4c0-0.3,0-0.5,0-0.7c0-0.2-0.1-0.3-0.3-0.4
			c-0.3-0.2-0.6-0.5-1-0.9c-0.4-0.4-0.5-1-0.5-1.7v-2.4h11.7c1.4,0,2.6,0.2,3.8,0.7c1.1,0.5,2.1,1.1,2.9,1.9
			c0.8,0.8,1.4,1.8,1.8,2.9c0.4,1.1,0.6,2.4,0.6,3.8v5.1c0,1.2-0.2,2.3-0.5,3.2c-0.3,1-0.9,1.8-1.6,2.4c-0.4,0.4-0.4,0.7,0.1,1.1
			c0.9,0.6,1.4,1.5,1.7,2.6c0.3,1.1,0.4,2.4,0.4,3.7v7.6c0,0.3,0.1,0.6,0.2,0.8C340.1,364.2,340.3,364.4,340.4,364.5z M333.4,337.1
			c0-1.1-0.3-2-1-2.6s-1.4-0.9-2.4-0.9h-2.2c-0.4,0-0.7,0.3-0.7,0.8v10.9c0,0.3,0.1,0.5,0.2,0.6c0.1,0.1,0.3,0.2,0.4,0.2h2.8
			c1.1,0,1.9-0.3,2.3-0.9c0.4-0.6,0.5-1.5,0.5-2.6V337.1z"/>
	</g>
	<g>
		<path class="st3" d="M250.3,400.7c0.9-6.7,1.8-10.1,2.6-16.7c-1,1.7-13.4,20.7-14.2,22.4c0,0,10.3,0,10.7,0
			c0,0.2-2.9,15.8-2.9,16.3c0.2,0,14.8-22.1,14.8-22.1S252.2,400.7,250.3,400.7z"/>
	</g>
	<g>
		<g>
			<path class="st3" d="M250.2,208.6L250.2,208.6l2.3-2.1c0,0-0.1-0.1-0.1-0.1L250.2,208.6z"/>
		</g>
		<g>
			<g>
				<g>
					<path class="st3" d="M285,217.1c-2.7,0-5.4-0.2-8.1-0.7c-8.5-1.5-16.4-5.5-22.8-11.4l-1.5-1.4l1.4-1.5l14.5-14.5l1.4,1.4
						c4.5,4.5,9.8,6.7,16.1,6.7s11.6-2.2,16.1-6.7c2.6-2.6,4.5-5.8,5.6-9.4l-7.6-4.1l-0.2-0.2c-0.9-0.9-1.1-1.9-1.1-2.5
						c0-0.6,0.2-1.6,1.1-2.5l0.2-0.2l7.6-4.1c-1.1-3.5-3-6.7-5.6-9.3c-4.5-4.5-9.8-6.7-16.1-6.7s-11.6,2.2-16.1,6.7l-1.4,1.4
						L251.3,141l1.4-1.4c6.7-6.7,15-11.1,24.2-12.7c2.7-0.5,5.4-0.7,8-0.7c25.1,0,45.5,20.4,45.5,45.5
						C330.4,196.7,310,217.1,285,217.1z"/>
				</g>
				<g>
					<path d="M285,128.2c24,0,43.5,19.5,43.5,43.5c0,24-19.5,43.5-43.5,43.5c-2.6,0-5.2-0.2-7.8-0.7c-8.2-1.5-15.7-5.2-21.8-10.9
						c0,0-0.1-0.1-0.1-0.1l13.1-13.1c4.8,4.8,10.7,7.2,17.5,7.2c6.9,0,12.7-2.4,17.5-7.2c3.3-3.3,5.5-7.2,6.5-11.8l-8.7-4.7
						c-0.7-0.7-0.7-1.5,0-2.2l8.7-4.7c-1.1-4.5-3.3-8.4-6.5-11.7c-4.8-4.8-10.7-7.2-17.5-7.2c-6.9,0-12.7,2.4-17.5,7.2L254.1,141
						c0,0,0,0,0.1-0.1c6.3-6.3,14.4-10.6,23.1-12.1C279.8,128.4,282.4,128.2,285,128.2 M285,124.2c-2.8,0-5.6,0.3-8.4,0.8
						c-9.6,1.7-18.3,6.3-25.2,13.2l-2.8,2.8l2.7,2.8l14.4,14.4l2.8,2.8l2.8-2.8c4.1-4.1,8.9-6.1,14.7-6.1c5.8,0,10.6,2,14.7,6.1
						c2.1,2.1,3.6,4.3,4.6,7l-5.8,3.1l-0.5,0.3l-0.4,0.4c-2.3,2.3-2.3,5.5,0,7.8l0.4,0.4l0.5,0.3l5.8,3.1c-1,2.6-2.5,5-4.6,7
						c-4.1,4.1-8.9,6.1-14.7,6.1c-5.8,0-10.6-2-14.7-6.1l-2.8-2.8l-2.8,2.8l-13.1,13.1l-2.9,2.9l3,2.8c6.7,6.3,15,10.4,23.9,12
						c2.8,0.5,5.7,0.8,8.5,0.8c26.2,0,47.4-21.3,47.4-47.4C332.4,145.5,311.1,124.2,285,124.2L285,124.2z"/>
				</g>
			</g>
			<g>
				<g>
					<path class="st3" d="M279.8,245.1l-4.8-15.6c-4-0.7-7.9-1.9-11.6-3.4l-0.5,0.5l-0.9-0.9l-2.6-1.3l1.7-1.5l0.2-0.4l-13.7-13.8
						l5-5l1.4,1.3c8.4,7.9,19.5,12.2,31.1,12.2c13,0,25.4-5.6,34-15.3c7.4-8.4,11.5-19.1,11.5-30.3c0-12.6-5.1-24.4-14.3-33.1
						c-8.5-8-19.6-12.5-31.3-12.5c-7.7,0-15.3,2-22,5.7l-12.8,7.1l23.3-22.7l0.1-0.7l2.3-7.3l3.2-10.1h16.5l5.4,17.5l9.5,2.9
						l15.1-11.3l13.2,9.4l-6.2,17.5l5.9,7.9h19.1l4.8,14.3l-2.1,1.6c-0.6,0.5-1.2,0.9-1.7,1.3l-3.3,2.2c-2.4,1.6-4.8,3.2-7.2,4.9
						c-0.1,0.1-0.2,0.1-0.2,0.2l8.8,3.7l0.3,0.3c0.9,0.9,1.1,1.9,1.1,2.5c0,0.6-0.2,1.6-1.1,2.5l-0.3,0.3l-6.1,2.6l12,8.2l-4.9,14.9
						h-19.1l-5.4,7.3l6.3,17.6l-13.1,9.4l-2.3-1.6c-0.7-0.4-1.2-0.8-1.7-1.2l-3.2-2.4c-2.3-1.7-4.6-3.5-7-5.2
						c-0.1-0.1-0.3-0.2-0.5-0.3c-3.1,1.5-6.4,2.8-9.8,3.7l-5.1,16.6H279.8z"/>
				</g>
				<g>
					<path d="M293.9,100c1.8,6,3.6,11.6,5.3,17.1c4,1.2,7.7,2.4,11.4,3.5c4.9-3.6,9.7-7.3,14.7-11c3.7,2.6,7.2,5.1,10.8,7.7
						c-2.1,6-4.1,11.5-6.1,17.1c2.4,3.3,4.7,6.3,7.1,9.5h18.7c1.3,3.9,2.6,7.7,3.9,11.6c-1.1,0.8-1.8,1.4-2.7,2
						c-3.5,2.4-7.1,4.7-10.5,7.1c-0.9,0.6-1.9,1.7-2,2.7l10.6,4.5c0.7,0.7,0.7,1.5,0,2.2l-9.1,3.9c4.5,3.1,9.1,6.1,13.8,9.3
						c-1.4,4.2-2.7,8.2-4,12.1h-18.7c-2.2,3-4.4,5.9-6.6,8.9c2,5.6,4,11.2,6.2,17.2c-3.6,2.6-7.2,5.1-10.8,7.7c-1.2-0.8-2-1.4-2.8-2
						c-3.4-2.5-6.8-5.1-10.2-7.6c-0.5-0.3-1.1-0.7-1.8-0.8c-3.6,1.8-7.3,3.2-11.2,4.2c-1.7,5.3-3.3,10.7-5,16.2h-13.6
						c-1.7-5.3-3.2-10.4-4.8-15.3c-4.7-0.8-9.2-2.1-13.4-4c0.9-0.7,1.2-1.1,1.2-1.1l-13.9-14l2.2-2.2c8.7,8.2,20.2,12.8,32.4,12.8
						c14.1,0,26.8-6.2,35.5-16c7.5-8.4,12-19.5,12-31.6c0-13.6-5.7-25.8-14.9-34.5c-8.5-8.1-20-13-32.6-13c-8.1,0-16,2.1-23,5.9
						l11.9-11.6l1.4-1.4l0.1-1.2c0.7-2.4,1.5-4.8,2.2-7.1c0.9-2.9,1.8-5.7,2.7-8.7H293.9 M262.9,223.7
						C262.9,223.7,262.9,223.7,262.9,223.7c0.1,0,0.2,0.1,0.2,0.1c0,0-0.1,0.1-0.1,0.1C262.9,223.8,262.8,223.7,262.9,223.7
						 M262.9,223.8C263,223.9,263,223.9,262.9,223.8C263,223.9,262.9,223.9,262.9,223.8C262.9,223.9,262.9,223.8,262.9,223.8
						 M296.9,96.1h-2.9h-13.6h-2.9l-0.9,2.8l-0.8,2.7l-1.9,6l-1.9,6.2l-0.3,1l-0.1,0.4l0,0.1l-0.4,0.3l-11.9,11.6l-21,20.5
						l25.7-14.2c6.4-3.6,13.7-5.4,21.1-5.4c11.2,0,21.8,4.2,29.9,11.9c8.8,8.3,13.7,19.6,13.7,31.6c0,10.7-3.9,21-11,29
						c-8.3,9.3-20.1,14.6-32.5,14.6c-11.1,0-21.6-4.2-29.7-11.7l-2.8-2.6l-2.7,2.7l-2.2,2.2l-2.8,2.8l2.8,2.8l11,11l-2.7,2.3l0,0
						l0,0l0.3,0.1l4.5,2.2l1.9,2.1l1.2-1c3.1,1.2,6.4,2.2,9.7,2.9l4.1,13.1l0.9,2.8h2.9h13.6h2.9l0.9-2.8l2.7-8.8l1.7-5.4
						c2.8-0.8,5.5-1.8,8.1-3c2.2,1.5,4.3,3.2,6.4,4.8c1.1,0.8,2.1,1.6,3.2,2.4c0.6,0.4,1.2,0.8,1.9,1.3l1.1,0.7l2.3,1.6l2.3-1.6
						l10.8-7.7l2.4-1.7l-1-2.8l-3.2-8.8l-2.3-6.4l2.3-3l1.9-2.6h16.7h2.8l0.9-2.7l3.9-11.9l0.1-0.3l0.9-2.8l-2.5-1.7l-7.8-5.3l2.5-1
						l0.7-0.3l0.5-0.5c1.4-1.4,1.7-2.9,1.7-3.9c0-1-0.3-2.5-1.7-3.9l-0.5-0.5l-0.7-0.3l-5.2-2.2c1.5-1,2.9-2,4.4-2.9
						c1.1-0.8,2.3-1.5,3.4-2.3c0.6-0.4,1.2-0.9,1.9-1.4l1-0.7l2.3-1.7l-0.9-2.7l-1.9-5.6l-2-6l-0.9-2.7h-2.8h-16.7l-0.1-0.2
						l-4.5-6.1l5.4-15.1l1-2.8l-2.4-1.7l-8.3-5.9l-2.5-1.8l-2.3-1.7l-2.3,1.7l-7.4,5.6l-5.7,4.3l-1.3-0.4l-6.2-1.9l-4.7-15.1
						L296.9,96.1L296.9,96.1z"/>
				</g>
			</g>
		</g>
		<g>
			
				<rect x="250.3" y="208.6" transform="matrix(0.7066 -0.7076 0.7076 0.7066 -74.1889 238.3029)" class="st4" width="0" height="0.1"/>
		</g>
		<g>
			<g>
				<g>
					<path class="st0" d="M203.7,244.4l-5.2-16.7c-3.3-0.9-6.6-2-9.7-3.5c-0.2,0.1-0.4,0.2-0.5,0.3c-2.4,1.7-4.7,3.5-7,5.2l-3.1,2.4
						c-0.5,0.4-1.1,0.8-1.8,1.2l-2.2,1.5l-13.1-9.4l6.3-17.6l-5.4-7.3h-19.1l-4.9-14.9l12.1-8.2l-6.8-2.9l-0.3-0.3
						c-1.5-1.5-1.5-3.5,0-5l0.3-0.3l8.9-3.8c-2.3-1.6-4.6-3.2-6.9-4.7l-3.4-2.2c-0.6-0.4-1.1-0.8-1.7-1.3l-2.1-1.6l4.8-14.3h19.1
						l5.9-7.9l-6.2-17.5l13.2-9.4l15.1,11.3l9.5-2.9l5.4-17.5h16.3l0.7,1.4l5.1,16.3l9.1,3l14.9-11.2l1.2,0.8
						c2.4,1.7,8.1,5.5,12.5,8.3l4.2,2.7L246,142.4l-1.4-1.5c-0.9-0.9-1.7-1.6-2.6-2.4c-2.2-1.9-4.6-3.6-7.1-5
						c-1.5-0.9-3-1.6-4.6-2.3c-1.4-0.6-2.9-1.2-4.4-1.6c-2.4-0.7-4.8-1.3-7.3-1.6c-2.1-0.3-4.2-0.4-6.3-0.4
						c-9.4,0-18.5,2.9-26.2,8.3c-12.1,8.6-19.4,22.5-19.4,37.2c0,25.1,20.4,45.6,45.6,45.6c12.6,0,24.7-5.3,33.3-14.5l1.4-1.5
						l1.5,1.4l18.8,18.8l-2,1.3c0,0-0.4,0.3-1.2,0.9l-14.4,10.7l-1.2-0.8c-2.4-1.7-7.1-5.8-10.7-9l-1.6-1.2
						c-3.5,1.5-7.3,2.7-11.2,3.4l-5,16H203.7z"/>
				</g>
				<g>
					<path d="M219.7,99.3c0.9,3,1.8,5.9,2.7,8.7c0.9,2.8,1.7,5.6,2.6,8.6c1,0.3,2.1,0.7,3.1,1c1.5,0.5,3,1,4.5,1.5
						c0.9,0.3,1.8,0.6,2.7,0.9c0.2,0.1,0.4,0.1,0.7,0.2c4.4-3.3,8.9-6.6,13.5-10.1c0.4-0.3,0.7-0.5,1.1-0.8
						c2.6,1.9,9.1,6.1,12.5,8.4c1.3,0.9,2.2,1.4,2.2,1.4l-1.6,1.7l-1.4,1.5l-9.6,10.1l-3.1,3.3l-0.4,0.4l-0.1,0.1l-3.1,3.3
						c0,0-0.1-0.1-0.1-0.1c-0.8-0.8-1.7-1.6-2.6-2.4c-2.3-2-4.8-3.7-7.4-5.2c-1.5-0.9-3.1-1.7-4.7-2.4c-1.5-0.6-3-1.2-4.6-1.7
						c-2.5-0.8-5-1.3-7.6-1.7c-2.1-0.3-4.3-0.5-6.5-0.5c-10.2,0-19.6,3.2-27.3,8.7c-12.2,8.6-20.2,22.8-20.2,38.9
						c0,26.2,21.3,47.5,47.5,47.5c13.7,0,26.1-5.8,34.8-15.2c0,0,0,0,0,0l3.1,3.1l0,0l0.1,0.1l0,0l13.9,14c0,0-0.4,0.2-1.3,1.1
						c-4.3,3.2-8.7,6.4-13.2,9.8c-2.5-1.8-7.4-6.1-10.5-8.8c-0.9-0.7-1.8-1.3-2.7-2c-4.1,1.9-8.4,3.2-13,4
						c-1.6,5.1-3.2,10.3-4.9,15.8h-13.6c-1.7-5.6-3.4-11-5.1-16.4c-3.9-0.9-7.6-2.3-11.1-4c-0.6,0.2-1.3,0.5-1.8,0.8
						c-3.5,2.5-6.8,5.1-10.2,7.6c-0.8,0.6-1.6,1.1-2.8,2c-3.6-2.6-7.2-5.1-10.8-7.7c2.2-6,4.2-11.6,6.2-17.2c-2.3-3-4.4-6-6.6-8.9
						h-18.7c-1.3-4-2.6-8-4-12.1c4.7-3.2,9.3-6.3,13.8-9.4l-9.7-4.1c-0.7-0.7-0.7-1.5,0-2.2l11-4.6c-0.3-0.8-1.1-1.7-1.8-2.2
						c-3.4-2.5-7-4.8-10.5-7.1c-0.8-0.6-1.6-1.2-2.7-2c1.3-3.9,2.6-7.7,3.9-11.6h18.7c2.4-3.2,4.7-6.3,7.1-9.5
						c-2-5.5-4-11.1-6.1-17.1c3.6-2.6,7.2-5.1,10.8-7.7c5,3.8,9.9,7.4,14.7,11c3.7-1.2,7.4-2.3,11.4-3.5c1.7-5.5,3.4-11.1,5.3-17.1
						h13.4H219.7 M222.6,95.4h-2.9h-0.2h-13.4h-2.9l-0.9,2.8l-4.7,15.1l-2.2,0.7l-5.3,1.6l-2.2-1.6l-11-8.2l-2.3-1.7l-2.3,1.7
						l-4.9,3.5l-5.9,4.2l-2.4,1.7l1,2.8l5.4,15.1l-1.8,2.5l-2.8,3.8h-16.7h-2.8l-0.9,2.7l-3.1,9.2l-0.8,2.4l-0.9,2.7l2.3,1.7l1,0.7
						c0.7,0.5,1.3,1,1.9,1.4c1.1,0.8,2.3,1.5,3.4,2.3c1.3,0.9,2.6,1.7,3.9,2.6l-5.2,2.2l-0.7,0.3l-0.5,0.5c-1.4,1.4-1.7,2.9-1.7,3.9
						c0,1,0.3,2.5,1.7,3.9l0.5,0.5l0.7,0.3l3.1,1.3l-2.8,1.9l-5,3.4l-2.5,1.7l0.9,2.8l3.2,9.6l0.9,2.6l0.9,2.7h2.8h16.7l4.2,5.6
						l-5.4,15.2l-1,2.8l2.4,1.7l8.2,5.8l2.6,1.9l2.3,1.6l2.3-1.6l1.1-0.7c0.7-0.5,1.3-0.9,1.9-1.3c1.1-0.8,2.1-1.6,3.2-2.4
						c2.1-1.6,4.3-3.2,6.5-4.8c2.6,1.2,5.3,2.1,8,2.9l1.1,3.7l3.3,10.6l0.9,2.8h2.9h13.6h2.9l0.9-2.8l4.2-13.5
						c3.2-0.7,6.4-1.7,9.4-2.9l0.1,0.1l0.6,0.5c3.5,3.1,8.2,7.2,10.7,9l2.3,1.7l2.3-1.7l6-4.5l7.1-5.3l0.1-0.1l0.1-0.1
						c0.6-0.5,0.9-0.8,1-0.8l3.8-2.7l-3.2-3.3l-13.9-14l-0.1-0.1l0,0l-3.1-3.1l-2.8-2.9l-2.8,2.9c-8.3,8.9-19.9,14-32,14
						c-24,0-43.6-19.6-43.6-43.6c0-14.1,6.9-27.4,18.5-35.6c7.4-5.2,16-8,25-8c1.9,0,4,0.1,6,0.4c2.4,0.3,4.8,0.9,7,1.6
						c1.4,0.4,2.8,1,4.2,1.6c1.4,0.6,2.9,1.4,4.4,2.2c2.4,1.4,4.7,3,6.8,4.8c0.9,0.8,1.7,1.5,2.4,2.2l2.9,2.9l2.9-2.8l3.1-3.3
						l0.5-0.5l3.1-3.3l9.6-10.1l1.4-1.5l1.6-1.7l3.3-3.4l-4-2.6l-2.2-1.4c-2.9-1.9-9.8-6.4-12.4-8.3l-2.3-1.7l-2.3,1.7l-1.1,0.8
						l-11.2,8.4l-0.7,0.5l-1.4-0.5l-2.4-0.8l-2.2-0.7l-1.2-0.4l-0.2-0.8l-1.8-5.8l-1.9-6l-0.9-2.8L222.6,95.4L222.6,95.4z"/>
				</g>
			</g>
			<g>
				<g>
					<path class="st0" d="M212.4,218.6c-4.8,0-9.5-0.8-14.1-2.3c-18.8-6.1-31.4-23.5-31.4-43.2c0-25.1,20.4-45.5,45.5-45.5
						c5.4,0,10.8,1,16,3c1.8,0.7,3.4,1.4,4.9,2.2c1.7,0.9,3.5,2,5.1,3.1c1.1,0.8,2.2,1.6,3.2,2.5c1,0.8,1.9,1.7,2.8,2.5l1.4,1.4
						L231,157.2l-1.4-1.4c-4.5-4.5-9.8-6.7-16.1-6.7c-6.4,0-11.6,2.2-16.1,6.7c-2.6,2.6-4.5,5.8-5.6,9.3l7.6,4.1l0.2,0.2
						c1.5,1.5,1.5,3.5,0,5l-0.2,0.2l-7.6,4.1c1.1,3.6,3,6.7,5.6,9.4c4.5,4.5,9.8,6.7,16.1,6.7s11.6-2.2,16.1-6.7l1.4-1.4l10.8,10.8
						l0.3-0.3l1.1,1.6l3.8,3.8l-1.1,1.4C237.1,213.3,224.9,218.6,212.4,218.6z"/>
				</g>
				<g>
					<path d="M212.4,129.6c5.4,0,10.6,1,15.3,2.8c1.6,0.6,3.2,1.3,4.7,2.1c1.7,0.9,3.3,1.9,4.9,3c1.1,0.7,2.1,1.5,3.1,2.4
						c0.9,0.8,1.8,1.6,2.7,2.4l-7,7l-3.3,3.3l-1.8,1.8c-4.8-4.8-10.7-7.2-17.5-7.2c-6.9,0-12.7,2.4-17.5,7.2
						c-3.3,3.3-5.5,7.2-6.5,11.7l8.7,4.7c0.7,0.7,0.7,1.5,0,2.2l-8.7,4.7c1.1,4.6,3.3,8.5,6.5,11.8c4.8,4.8,10.7,7.2,17.5,7.2
						c6.9,0,12.7-2.4,17.5-7.2l10.7,10.7c0,0,0,0,0,0l2.6,2.6c0,0,0,0,0,0c-8,8.6-19.3,14-31.9,14c-4.7,0-9.2-0.8-13.5-2.2
						c-17.4-5.7-30-22.1-30-41.3C168.9,149.2,188.4,129.6,212.4,129.6 M212.4,125.7c-26.2,0-47.4,21.3-47.4,47.4
						c0,20.6,13.2,38.7,32.7,45.1c4.8,1.6,9.7,2.4,14.7,2.4c13.1,0,25.8-5.6,34.8-15.3l2.6-2.8l-2.6-2.7l-2.6-2.6l-2.8-2.8l0,0l-8-8
						l-2.8-2.8l-2.8,2.8c-4.1,4.1-8.9,6.1-14.7,6.1c-5.8,0-10.6-2-14.7-6.1c-2.1-2.1-3.6-4.4-4.6-7l5.8-3.1l0.5-0.3l0.4-0.4
						c1.4-1.4,1.7-2.9,1.7-3.9c0-1-0.3-2.5-1.7-3.9l-0.4-0.4l-0.5-0.3l-5.8-3.1c1-2.6,2.5-4.9,4.6-7c4.1-4.1,8.9-6.1,14.7-6.1
						c5.8,0,10.6,2,14.7,6.1l2.8,2.8l2.8-2.8l1.8-1.8l3.3-3.3l7-7l2.8-2.8l-2.8-2.8c-0.9-0.9-1.8-1.7-2.9-2.7
						c-1-0.9-2.1-1.7-3.3-2.6c-1.7-1.2-3.5-2.3-5.3-3.2c-1.6-0.8-3.2-1.6-5.1-2.3C223.7,126.7,218,125.7,212.4,125.7L212.4,125.7z"
						/>
				</g>
			</g>
		</g>
	</g>
</g>
</svg>
